<?xml version="1.0" encoding="iso-8859-1"?>
<!-- Generator: Adobe Illustrator 19.0.0, SVG Export Plug-In . SVG Version: 6.00 Build 0)  -->
<svg xmlns="http://www.w3.org/2000/svg" xmlns:xlink="http://www.w3.org/1999/xlink" version="1.1" id="Capa_1" x="0px" y="0px" viewBox="0 0 373.12 373.12" style="enable-background:new 0 0 373.12 373.12;" xml:space="preserve">
<g>
	<g>
		<g>
			<rect x="85.333" y="128" width="106.667" height="21.333"/>
			<path d="M266.667,234.667h-16.853l-5.973-5.76c20.907-24.32,33.493-55.893,33.493-90.24C277.333,62.08,215.253,0,138.667,0     S0,62.08,0,138.667s62.08,138.667,138.667,138.667c34.347,0,65.92-12.587,90.24-33.493l5.76,5.973v16.853L341.333,373.12     l31.787-31.787L266.667,234.667z M138.667,234.667c-53.12,0-96-42.88-96-96s42.88-96,96-96s96,42.88,96,96     S191.787,234.667,138.667,234.667z"/>
		</g>
	</g>
</g>
<g>
</g>
<g>
</g>
<g>
</g>
<g>
</g>
<g>
</g>
<g>
</g>
<g>
</g>
<g>
</g>
<g>
</g>
<g>
</g>
<g>
</g>
<g>
</g>
<g>
</g>
<g>
</g>
<g>
</g>
</svg>
