<?xml version="1.0" encoding="iso-8859-1"?>
<!-- Generator: Adobe Illustrator 19.0.0, SVG Export Plug-In . SVG Version: 6.00 Build 0)  -->
<svg xmlns="http://www.w3.org/2000/svg" xmlns:xlink="http://www.w3.org/1999/xlink" version="1.1" id="Capa_1" x="0px" y="0px" viewBox="0 0 405.333 405.333" style="enable-background:new 0 0 405.333 405.333;" xml:space="preserve">
<g>
	<g>
		<g>
			<path d="M85.333,53.333h-64C9.6,53.333,0,62.933,0,74.667v256C0,342.4,9.6,352,21.333,352h64c11.733,0,21.333-9.6,21.333-21.333     v-256C106.667,62.933,97.067,53.333,85.333,53.333z"/>
			<path d="M234.667,53.333h-64c-11.733,0-21.333,9.6-21.333,21.333v256c0,11.733,9.6,21.333,21.333,21.333h64     C246.4,352,256,342.4,256,330.667v-256C256,62.933,246.4,53.333,234.667,53.333z"/>
			<path d="M384,53.333h-64c-11.733,0-21.333,9.6-21.333,21.333v256c0,11.733,9.6,21.333,21.333,21.333h64     c11.733,0,21.333-9.6,21.333-21.333v-256C405.333,62.933,395.733,53.333,384,53.333z"/>
		</g>
	</g>
</g>
<g>
</g>
<g>
</g>
<g>
</g>
<g>
</g>
<g>
</g>
<g>
</g>
<g>
</g>
<g>
</g>
<g>
</g>
<g>
</g>
<g>
</g>
<g>
</g>
<g>
</g>
<g>
</g>
<g>
</g>
</svg>
