<?xml version="1.0" encoding="iso-8859-1"?>
<!-- Generator: Adobe Illustrator 19.0.0, SVG Export Plug-In . SVG Version: 6.00 Build 0)  -->
<svg xmlns="http://www.w3.org/2000/svg" xmlns:xlink="http://www.w3.org/1999/xlink" version="1.1" id="Capa_1" x="0px" y="0px" viewBox="0 0 405.333 405.333" style="enable-background:new 0 0 405.333 405.333;" xml:space="preserve">
<g>
	<g>
		<g>
			<path d="M384,224H21.333C9.6,224,0,233.6,0,245.333v128c0,11.733,9.6,21.333,21.333,21.333H384     c11.733,0,21.333-9.6,21.333-21.333v-128C405.333,233.6,395.733,224,384,224z"/>
			<path d="M384,10.667H21.333C9.6,10.667,0,20.267,0,32v128c0,11.733,9.6,21.333,21.333,21.333H384     c11.733,0,21.333-9.6,21.333-21.333V32C405.333,20.267,395.733,10.667,384,10.667z"/>
		</g>
	</g>
</g>
<g>
</g>
<g>
</g>
<g>
</g>
<g>
</g>
<g>
</g>
<g>
</g>
<g>
</g>
<g>
</g>
<g>
</g>
<g>
</g>
<g>
</g>
<g>
</g>
<g>
</g>
<g>
</g>
<g>
</g>
</svg>
