<?xml version="1.0" encoding="iso-8859-1"?>
<!-- Generator: Adobe Illustrator 19.0.0, SVG Export Plug-In . SVG Version: 6.00 Build 0)  -->
<svg xmlns="http://www.w3.org/2000/svg" xmlns:xlink="http://www.w3.org/1999/xlink" version="1.1" id="Capa_1" x="0px" y="0px" viewBox="0 0 426.667 426.667" style="enable-background:new 0 0 426.667 426.667;" xml:space="preserve">
<g>
	<g>
		<path d="M364.16,62.507l-30.08,30.08C364.8,123.52,384,166.187,384,213.333C384,307.627,307.627,384,213.333,384    S42.667,307.627,42.667,213.333c0-87.04,65.067-158.72,149.333-169.173v43.093c-60.587,10.24-106.667,62.72-106.667,126.08    c0,70.613,57.387,128,128,128s128-57.387,128-128c0-35.413-14.293-67.413-37.547-90.453l-30.08,30.08    c15.36,15.573,24.96,36.907,24.96,60.373c0,47.147-38.187,85.333-85.333,85.333S128,260.48,128,213.333    c0-39.68,27.307-72.747,64-82.347v45.653c-12.8,7.467-21.333,20.907-21.333,36.693c0,23.467,19.2,42.667,42.667,42.667    S256,236.8,256,213.333c0-15.787-8.533-29.44-21.333-36.693V0h-21.333C95.573,0,0,95.573,0,213.333    s95.573,213.333,213.333,213.333s213.333-95.573,213.333-213.333C426.667,154.453,402.773,101.12,364.16,62.507z"/>
	</g>
</g>
<g>
</g>
<g>
</g>
<g>
</g>
<g>
</g>
<g>
</g>
<g>
</g>
<g>
</g>
<g>
</g>
<g>
</g>
<g>
</g>
<g>
</g>
<g>
</g>
<g>
</g>
<g>
</g>
<g>
</g>
</svg>
