<?xml version="1.0" encoding="iso-8859-1"?>
<!-- Generator: Adobe Illustrator 19.0.0, SVG Export Plug-In . SVG Version: 6.00 Build 0)  -->
<svg xmlns="http://www.w3.org/2000/svg" xmlns:xlink="http://www.w3.org/1999/xlink" version="1.1" id="Capa_1" x="0px" y="0px" viewBox="0 0 512 512" style="enable-background:new 0 0 512 512;" xml:space="preserve">
<g>
	<g>
		<g>
			<path d="M176.659,200.851v-91.163c0-33.638,27.3-60.938,60.938-60.938c33.638,0,60.938,27.3,60.938,60.938v91.163     c29.372-19.622,48.75-53.138,48.75-91.163C347.285,49.116,298.169,0,237.597,0S127.909,49.116,127.909,109.688     C127.909,147.713,147.287,181.229,176.659,200.851z"/>
			<path d="M416.389,313.708L305.725,258.62c-4.144-1.706-8.531-2.681-13.284-2.681H274.16V109.688     c0-20.231-16.331-36.563-36.563-36.563s-36.563,16.331-36.563,36.563v261.667l-83.485-17.428     c-1.828-0.366-3.778-0.609-5.728-0.609c-7.556,0-14.381,3.169-19.378,8.044l-19.256,19.5L193.6,501.275     c6.703,6.581,15.844,10.725,25.838,10.725h165.629c18.403,0,32.419-13.528,34.978-31.2l18.403-128.457     c0.244-1.706,0.366-3.291,0.366-4.997C438.692,332.233,429.429,319.193,416.389,313.708z"/>
		</g>
	</g>
</g>
<g>
</g>
<g>
</g>
<g>
</g>
<g>
</g>
<g>
</g>
<g>
</g>
<g>
</g>
<g>
</g>
<g>
</g>
<g>
</g>
<g>
</g>
<g>
</g>
<g>
</g>
<g>
</g>
<g>
</g>
</svg>
