<?xml version="1.0" encoding="iso-8859-1"?>
<!-- Generator: Adobe Illustrator 19.0.0, SVG Export Plug-In . SVG Version: 6.00 Build 0)  -->
<svg xmlns="http://www.w3.org/2000/svg" xmlns:xlink="http://www.w3.org/1999/xlink" version="1.1" id="Capa_1" x="0px" y="0px" viewBox="0 0 512 512" style="enable-background:new 0 0 512 512;" xml:space="preserve">
<g>
	<g>
		<g>
			<path d="M256,128c0-11.733-9.6-21.333-21.333-21.333H124.053l14.187-67.733c0.32-1.6,0.533-3.307,0.533-5.013     c0-6.613-2.667-12.587-7.04-16.96L114.773,0L9.387,105.387C3.627,111.147,0,119.147,0,128v138.667c0,17.707,14.293,32,32,32h144     c13.227,0,24.64-8,29.44-19.52l48.32-112.853c1.387-3.627,2.24-7.467,2.24-11.627V128z"/>
			<path d="M480,213.333L480,213.333H336c-13.227,0-24.64,8-29.44,19.52l-48.32,112.853c-1.387,3.627-2.24,7.467-2.24,11.627V384     c0,11.733,9.6,21.333,21.333,21.333h110.613l-14.187,67.733c-0.32,1.6-0.533,3.307-0.533,5.013c0,6.613,2.667,12.587,7.04,16.96     l16.96,16.96l105.387-105.387c5.76-5.76,9.387-13.76,9.387-22.613V245.333C512,227.627,497.707,213.333,480,213.333z"/>
		</g>
	</g>
</g>
<g>
</g>
<g>
</g>
<g>
</g>
<g>
</g>
<g>
</g>
<g>
</g>
<g>
</g>
<g>
</g>
<g>
</g>
<g>
</g>
<g>
</g>
<g>
</g>
<g>
</g>
<g>
</g>
<g>
</g>
</svg>
