<?xml version="1.0" encoding="iso-8859-1"?>
<!-- Generator: Adobe Illustrator 19.0.0, SVG Export Plug-In . SVG Version: 6.00 Build 0)  -->
<svg xmlns="http://www.w3.org/2000/svg" xmlns:xlink="http://www.w3.org/1999/xlink" version="1.1" id="Capa_1" x="0px" y="0px" viewBox="0 0 384 384" style="enable-background:new 0 0 384 384;" xml:space="preserve">
<g>
	<g>
		<path d="M320,0v42.667h-42.667V0H106.667v42.667H64V0H21.333v384H64v-42.667h42.667V384h170.667v-42.667H320V384h42.667V0H320z     M106.667,298.667H64V256h42.667V298.667z M106.667,213.333H64v-42.667h42.667V213.333z M106.667,128H64V85.333h42.667V128z     M320,298.667h-42.667V256H320V298.667z M320,213.333h-42.667v-42.667H320V213.333z M320,128h-42.667V85.333H320V128z"/>
	</g>
</g>
<g>
</g>
<g>
</g>
<g>
</g>
<g>
</g>
<g>
</g>
<g>
</g>
<g>
</g>
<g>
</g>
<g>
</g>
<g>
</g>
<g>
</g>
<g>
</g>
<g>
</g>
<g>
</g>
<g>
</g>
</svg>
