<?xml version="1.0" encoding="iso-8859-1"?>
<!-- Generator: Adobe Illustrator 19.0.0, SVG Export Plug-In . SVG Version: 6.00 Build 0)  -->
<svg xmlns="http://www.w3.org/2000/svg" xmlns:xlink="http://www.w3.org/1999/xlink" version="1.1" id="Capa_1" x="0px" y="0px" viewBox="0 0 426.667 426.667" style="enable-background:new 0 0 426.667 426.667;" xml:space="preserve">
<g>
	<g>
		<g>
			<path d="M309.333,213.333c29.44,0,53.12-23.893,53.12-53.333s-23.68-53.333-53.12-53.333S256,130.56,256,160     S279.893,213.333,309.333,213.333z"/>
			<path d="M149.333,192c35.307,0,63.787-28.693,63.787-64c0-35.307-28.48-64-63.787-64s-64,28.693-64,64     C85.333,163.307,114.027,192,149.333,192z"/>
			<path d="M149.333,234.667C99.52,234.667,0,259.627,0,309.333v53.333h149.333v-48c0-18.133,7.147-49.813,50.56-74.027     C181.333,236.693,163.307,234.667,149.333,234.667z"/>
			<path d="M309.333,256C270.187,256,192,275.627,192,314.667v48h234.667v-48C426.667,275.627,348.48,256,309.333,256z"/>
		</g>
	</g>
</g>
<g>
</g>
<g>
</g>
<g>
</g>
<g>
</g>
<g>
</g>
<g>
</g>
<g>
</g>
<g>
</g>
<g>
</g>
<g>
</g>
<g>
</g>
<g>
</g>
<g>
</g>
<g>
</g>
<g>
</g>
</svg>
