<?xml version="1.0" encoding="iso-8859-1"?>
<!-- Generator: Adobe Illustrator 19.0.0, SVG Export Plug-In . SVG Version: 6.00 Build 0)  -->
<svg xmlns="http://www.w3.org/2000/svg" xmlns:xlink="http://www.w3.org/1999/xlink" version="1.1" id="Capa_1" x="0px" y="0px" viewBox="0 0 469.333 469.333" style="enable-background:new 0 0 469.333 469.333;" xml:space="preserve">
<g>
	<g>
		<g>
			<path d="M224.853,197.76l-11.52-11.52l-52.48-52.48L128,100.907l-77.12-77.12L27.093,0L0,27.093l42.88,42.88l-0.213,362.453     L128,347.093h192l122.24,122.24l27.093-27.093l-95.147-95.147L224.853,197.76z M170.667,261.76H128v-42.667h42.667V261.76z      M128,197.76v-42.667l42.667,42.667H128z"/>
			<path d="M426.667,5.76H87.04l126.293,126.293v-40.96H384v42.667H215.04l21.333,21.333H384v42.667H279.04l149.227,149.227     c22.72-0.853,41.067-19.627,41.067-42.56v-256C469.333,24.96,450.133,5.76,426.667,5.76z"/>
		</g>
	</g>
</g>
<g>
</g>
<g>
</g>
<g>
</g>
<g>
</g>
<g>
</g>
<g>
</g>
<g>
</g>
<g>
</g>
<g>
</g>
<g>
</g>
<g>
</g>
<g>
</g>
<g>
</g>
<g>
</g>
<g>
</g>
</svg>
