<?xml version="1.0" encoding="iso-8859-1"?>
<!-- Generator: Adobe Illustrator 19.0.0, SVG Export Plug-In . SVG Version: 6.00 Build 0)  -->
<svg xmlns="http://www.w3.org/2000/svg" xmlns:xlink="http://www.w3.org/1999/xlink" version="1.1" id="Capa_1" x="0px" y="0px" viewBox="0 0 469.333 469.333" style="enable-background:new 0 0 469.333 469.333;" xml:space="preserve">
<g>
	<g>
		<g>
			<path d="M42.667,181.333H0V416c0,23.573,19.093,42.667,42.667,42.667h298.667C364.907,458.667,384,439.573,384,416H42.667     V181.333z"/>
			<path d="M362.667,96V53.333c0-23.573-19.093-42.667-42.667-42.667h-85.333C211.093,10.667,192,29.76,192,53.333V96H85.333     v234.667c0,23.573,19.093,42.667,42.667,42.667h298.667c23.573,0,42.667-19.093,42.667-42.667V96H362.667z M234.667,53.333H320     V96h-85.333V53.333z M234.667,309.333V160L352,224L234.667,309.333z"/>
		</g>
	</g>
</g>
<g>
</g>
<g>
</g>
<g>
</g>
<g>
</g>
<g>
</g>
<g>
</g>
<g>
</g>
<g>
</g>
<g>
</g>
<g>
</g>
<g>
</g>
<g>
</g>
<g>
</g>
<g>
</g>
<g>
</g>
</svg>
