<?xml version="1.0" encoding="iso-8859-1"?>
<!-- Generator: Adobe Illustrator 19.0.0, SVG Export Plug-In . SVG Version: 6.00 Build 0)  -->
<svg xmlns="http://www.w3.org/2000/svg" xmlns:xlink="http://www.w3.org/1999/xlink" version="1.1" id="Capa_1" x="0px" y="0px" viewBox="0 0 469.333 469.333" style="enable-background:new 0 0 469.333 469.333;" xml:space="preserve">
<g>
	<g>
		<g>
			<path d="M256,289.76c18.773-8.213,32-26.987,32-48.853c0-29.44-23.893-53.333-53.333-53.333s-53.333,23.893-53.333,53.333     c0,21.867,13.227,40.64,32,48.853v70.293l-72.853,72.853l30.187,30.187l64-64l64,64l30.187-30.187L256,360.053V289.76z"/>
			<path d="M234.667,91.573c-82.453,0-149.333,66.88-149.333,149.333H128c0-58.88,47.787-106.667,106.667-106.667     s106.667,47.787,106.667,106.667H384C384,158.453,317.12,91.573,234.667,91.573z"/>
			<path d="M234.667,6.24C105.067,6.24,0,111.307,0,240.907h42.667c0-106.027,85.973-192,192-192s192,85.973,192,192h42.667     C469.333,111.307,364.267,6.24,234.667,6.24z"/>
		</g>
	</g>
</g>
<g>
</g>
<g>
</g>
<g>
</g>
<g>
</g>
<g>
</g>
<g>
</g>
<g>
</g>
<g>
</g>
<g>
</g>
<g>
</g>
<g>
</g>
<g>
</g>
<g>
</g>
<g>
</g>
<g>
</g>
</svg>
