<?xml version="1.0" encoding="iso-8859-1"?>
<!-- Generator: Adobe Illustrator 19.0.0, SVG Export Plug-In . SVG Version: 6.00 Build 0)  -->
<svg xmlns="http://www.w3.org/2000/svg" xmlns:xlink="http://www.w3.org/1999/xlink" version="1.1" id="Capa_1" x="0px" y="0px" viewBox="0 0 384 384" style="enable-background:new 0 0 384 384;" xml:space="preserve">
<g>
	<g>
		<g>
			<path d="M192,149.333c-23.573,0-42.667,19.093-42.667,42.667s19.093,42.667,42.667,42.667s42.667-19.093,42.667-42.667     S215.573,149.333,192,149.333z"/>
			<path d="M341.333,0H42.667C19.093,0,0,19.093,0,42.667v298.667C0,364.907,19.093,384,42.667,384h298.667     C364.907,384,384,364.907,384,341.333V42.667C384,19.093,364.907,0,341.333,0z M304,192c0,4.907-0.427,9.813-1.067,14.613     l31.573,24.747c2.773,2.24,3.627,6.293,1.707,9.493l-29.867,51.733c-1.813,3.2-5.76,4.48-9.173,3.2l-37.227-15.04     c-7.68,5.973-16.107,10.88-25.28,14.72l-5.547,39.573c-0.427,3.52-3.52,6.293-7.253,6.293h-59.733     c-3.733,0-6.827-2.773-7.36-6.293l-5.547-39.573c-9.067-3.733-17.493-8.747-25.28-14.72l-37.12,14.933     c-3.413,1.28-7.253,0-9.173-3.2l-29.867-51.733c-1.92-3.2-1.067-7.253,1.707-9.493l31.573-24.64     c-0.64-4.8-1.067-9.6-1.067-14.613c0-4.907,0.427-9.813,1.067-14.613l-31.573-24.64c-2.773-2.24-3.627-6.293-1.707-9.493     L77.653,91.52c1.92-3.2,5.76-4.48,9.173-3.2l37.12,14.933c7.68-5.867,16.107-10.88,25.28-14.72l5.547-39.573     c0.533-3.52,3.627-6.293,7.36-6.293h59.733c3.733,0,6.827,2.773,7.36,6.293l5.547,39.573c9.067,3.733,17.493,8.747,25.28,14.72     l37.12-14.933c3.413-1.28,7.253,0,9.173,3.2l29.867,51.733c1.92,3.2,1.067,7.253-1.707,9.493l-31.573,24.747     C303.573,182.187,304,187.093,304,192z"/>
		</g>
	</g>
</g>
<g>
</g>
<g>
</g>
<g>
</g>
<g>
</g>
<g>
</g>
<g>
</g>
<g>
</g>
<g>
</g>
<g>
</g>
<g>
</g>
<g>
</g>
<g>
</g>
<g>
</g>
<g>
</g>
<g>
</g>
</svg>
