<?xml version="1.0" encoding="iso-8859-1"?>
<!-- Generator: Adobe Illustrator 19.0.0, SVG Export Plug-In . SVG Version: 6.00 Build 0)  -->
<svg xmlns="http://www.w3.org/2000/svg" xmlns:xlink="http://www.w3.org/1999/xlink" version="1.1" id="Capa_1" x="0px" y="0px" viewBox="0 0 426.667 426.667" style="enable-background:new 0 0 426.667 426.667;" xml:space="preserve">
<g>
	<g>
		<path d="M256,0H85.333C61.867,0,42.88,19.2,42.88,42.667L42.667,384c0,23.467,18.987,42.667,42.453,42.667h256.213    C364.8,426.667,384,407.467,384,384V128L256,0z M213.333,341.333c-43.733,0-81.173-26.347-97.707-64h36.48    c13.547,19.307,35.84,32,61.12,32c41.28,0,74.667-33.387,74.667-74.667c0-41.28-33.387-74.667-74.667-74.667    c-28.907,0-53.653,16.533-66.027,40.64l34.133,34.027H96v-85.333l27.733,27.733C142.72,147.627,175.68,128,213.333,128    C272.213,128,320,175.787,320,234.667S272.213,341.333,213.333,341.333z"/>
	</g>
</g>
<g>
</g>
<g>
</g>
<g>
</g>
<g>
</g>
<g>
</g>
<g>
</g>
<g>
</g>
<g>
</g>
<g>
</g>
<g>
</g>
<g>
</g>
<g>
</g>
<g>
</g>
<g>
</g>
<g>
</g>
</svg>
