<?xml version="1.0" encoding="iso-8859-1"?>
<!-- Generator: Adobe Illustrator 19.0.0, SVG Export Plug-In . SVG Version: 6.00 Build 0)  -->
<svg xmlns="http://www.w3.org/2000/svg" xmlns:xlink="http://www.w3.org/1999/xlink" version="1.1" id="Capa_1" x="0px" y="0px" viewBox="0 0 469.333 469.333" style="enable-background:new 0 0 469.333 469.333;" xml:space="preserve">
<g>
	<g>
		<circle cx="170.667" cy="181.333" r="85.333"/>
	</g>
</g>
<g>
	<g>
		<g>
			<path d="M336.213,103.787l-35.947,36.053c17.92,25.28,17.92,57.707,0,82.987l35.947,36.053     C379.307,215.573,379.307,150.613,336.213,103.787L336.213,103.787z"/>
			<path d="M170.667,309.333C113.707,309.333,0,337.92,0,394.667v42.667h341.333v-42.667     C341.333,337.92,227.627,309.333,170.667,309.333z"/>
			<path d="M406.933,32L372.16,66.773c59.093,64.533,59.093,161.173-0.107,229.013l34.88,34.88     C490.133,247.787,490.133,118.293,406.933,32z"/>
		</g>
	</g>
</g>
<g>
</g>
<g>
</g>
<g>
</g>
<g>
</g>
<g>
</g>
<g>
</g>
<g>
</g>
<g>
</g>
<g>
</g>
<g>
</g>
<g>
</g>
<g>
</g>
<g>
</g>
<g>
</g>
<g>
</g>
</svg>
