<?xml version="1.0" encoding="iso-8859-1"?>
<!-- Generator: Adobe Illustrator 19.0.0, SVG Export Plug-In . SVG Version: 6.00 Build 0)  -->
<svg xmlns="http://www.w3.org/2000/svg" xmlns:xlink="http://www.w3.org/1999/xlink" version="1.1" id="Capa_1" x="0px" y="0px" viewBox="0 0 426.667 426.667" style="enable-background:new 0 0 426.667 426.667;" xml:space="preserve">
<g>
	<g>
		<circle cx="53.333" cy="149.298" r="53.333"/>
	</g>
</g>
<g>
	<g>
		<circle cx="149.333" cy="63.965" r="53.333"/>
	</g>
</g>
<g>
	<g>
		<circle cx="277.333" cy="63.965" r="53.333"/>
	</g>
</g>
<g>
	<g>
		<circle cx="373.333" cy="149.298" r="53.333"/>
	</g>
</g>
<g>
	<g>
		<path d="M327.253,263.645c-18.667-21.653-34.24-40.32-52.907-61.973c-9.92-11.52-22.4-23.147-37.227-28.16    c-2.24-0.747-4.587-1.387-7.04-1.813c-5.44-1.067-11.2-1.067-16.747-1.067c-5.547,0-11.307,0-16.747,1.067    c-2.347,0.427-4.693,1.067-7.04,1.813c-14.827,5.013-27.307,16.64-37.227,28.16c-18.667,21.653-34.24,40.32-52.907,61.973    c-27.947,27.84-62.187,58.88-56,102.293c6.187,21.653,21.76,43.413,49.813,49.6c15.573,3.093,65.28-9.28,118.187-9.28    c0.64,0,1.28,0.107,1.92,0.107c0.64,0,1.28-0.107,1.92-0.107c52.907,0,102.613,12.373,118.187,9.28    c27.947-6.187,43.52-27.84,49.813-49.6C389.44,322.525,355.307,291.485,327.253,263.645z"/>
	</g>
</g>
<g>
</g>
<g>
</g>
<g>
</g>
<g>
</g>
<g>
</g>
<g>
</g>
<g>
</g>
<g>
</g>
<g>
</g>
<g>
</g>
<g>
</g>
<g>
</g>
<g>
</g>
<g>
</g>
<g>
</g>
</svg>
