<?xml version="1.0" encoding="iso-8859-1"?>
<!-- Generator: Adobe Illustrator 19.0.0, SVG Export Plug-In . SVG Version: 6.00 Build 0)  -->
<svg xmlns="http://www.w3.org/2000/svg" xmlns:xlink="http://www.w3.org/1999/xlink" version="1.1" id="Capa_1" x="0px" y="0px" viewBox="0 0 341.333 341.333" style="enable-background:new 0 0 341.333 341.333;" xml:space="preserve">
<g>
	<g>
		<g>
			<path d="M170.667,192C113.813,192,0,220.48,0,277.333v64h341.333v-64C341.333,220.48,227.52,192,170.667,192z M300.8,300.8     H40.533v-23.467c0-13.76,66.667-44.8,130.133-44.8s130.133,31.04,130.133,44.8V300.8z"/>
			<path d="M170.667,170.667c47.147,0,85.333-38.293,85.333-85.333C256,38.187,217.813,0,170.667,0S85.333,38.187,85.333,85.333     C85.333,132.373,123.52,170.667,170.667,170.667z M170.667,40.533c24.747,0,44.8,20.053,44.8,44.8     c0,24.747-20.053,44.8-44.8,44.8s-44.8-20.053-44.8-44.8C125.867,60.587,145.92,40.533,170.667,40.533z"/>
		</g>
	</g>
</g>
<g>
</g>
<g>
</g>
<g>
</g>
<g>
</g>
<g>
</g>
<g>
</g>
<g>
</g>
<g>
</g>
<g>
</g>
<g>
</g>
<g>
</g>
<g>
</g>
<g>
</g>
<g>
</g>
<g>
</g>
</svg>
