<?xml version="1.0" encoding="iso-8859-1"?>
<!-- Generator: Adobe Illustrator 19.0.0, SVG Export Plug-In . SVG Version: 6.00 Build 0)  -->
<svg xmlns="http://www.w3.org/2000/svg" xmlns:xlink="http://www.w3.org/1999/xlink" version="1.1" id="Capa_1" x="0px" y="0px" viewBox="0 0 512 512" style="enable-background:new 0 0 512 512;" xml:space="preserve">
<g>
	<g>
		<g>
			<path d="M406.694,245.333c7.253,0,14.507,0.64,21.547,1.6V0L1.574,426.667h246.72c-0.96-7.04-1.6-14.08-1.6-21.333     C246.694,317.013,318.374,245.333,406.694,245.333z"/>
			<path d="M508.347,433.387l-22.4-17.6l0,0c0.427-3.413,0.747-6.827,0.747-10.453c0-3.52-0.32-7.04-0.747-10.453l22.507-17.6     c2.027-1.6,2.56-4.48,1.28-6.827L488.4,333.547c-1.28-2.347-4.16-3.2-6.507-2.347l-26.56,10.667     c-5.547-4.267-11.52-7.787-18.027-10.453l-3.947-28.267c-0.427-2.56-2.667-4.48-5.333-4.48H385.36     c-2.667,0-4.907,1.92-5.227,4.48l-3.947,28.267c-6.507,2.667-12.48,6.293-18.027,10.453L331.6,331.2     c-2.453-0.96-5.227,0-6.507,2.347l-21.333,36.907c-1.387,2.347-0.747,5.227,1.28,6.827l22.507,17.6     c-0.427,3.413-0.747,6.933-0.747,10.453c0,3.52,0.32,7.04,0.747,10.453l-22.507,17.6c-2.027,1.6-2.56,4.48-1.28,6.827     l21.333,36.907c1.387,2.347,4.16,3.2,6.507,2.347l26.56-10.667c5.547,4.267,11.52,7.787,18.027,10.453l3.947,28.267     c0.427,2.56,2.667,4.48,5.227,4.48h42.667c2.667,0,4.8-1.92,5.227-4.48l3.947-28.267c6.507-2.667,12.48-6.293,18.027-10.453     l26.56,10.667c2.453,0.96,5.227,0,6.507-2.347l21.333-36.907C511.014,437.867,510.374,434.987,508.347,433.387z M406.694,437.333     c-17.707,0-32-14.293-32-32s14.293-32,32-32s32,14.293,32,32S424.4,437.333,406.694,437.333z"/>
		</g>
	</g>
</g>
<g>
</g>
<g>
</g>
<g>
</g>
<g>
</g>
<g>
</g>
<g>
</g>
<g>
</g>
<g>
</g>
<g>
</g>
<g>
</g>
<g>
</g>
<g>
</g>
<g>
</g>
<g>
</g>
<g>
</g>
</svg>
