<?xml version="1.0" encoding="iso-8859-1"?>
<!-- Generator: Adobe Illustrator 19.0.0, SVG Export Plug-In . SVG Version: 6.00 Build 0)  -->
<svg xmlns="http://www.w3.org/2000/svg" xmlns:xlink="http://www.w3.org/1999/xlink" version="1.1" id="Capa_1" x="0px" y="0px" viewBox="0 0 426.667 426.667" style="enable-background:new 0 0 426.667 426.667;" xml:space="preserve">
<g>
	<g>
		<path d="M384,64h-67.627l-39.04-42.667h-128L110.293,64H42.667C19.093,64,0,83.093,0,106.667v256    c0,23.573,19.093,42.667,42.667,42.667H192v-44.587c-60.48-10.24-106.667-62.827-106.667-126.08H128    c0,47.04,38.293,85.333,85.333,85.333s85.333-38.293,85.333-85.333h42.667c0,63.253-46.187,115.84-106.667,126.08v44.587H384    c23.573,0,42.667-19.093,42.667-42.667v-256C426.667,83.093,407.573,64,384,64z M256,234.667    c0,23.573-19.093,42.667-42.667,42.667s-42.667-19.093-42.667-42.667v-85.333c0-23.573,19.093-42.667,42.667-42.667    S256,125.76,256,149.333V234.667z"/>
	</g>
</g>
<g>
</g>
<g>
</g>
<g>
</g>
<g>
</g>
<g>
</g>
<g>
</g>
<g>
</g>
<g>
</g>
<g>
</g>
<g>
</g>
<g>
</g>
<g>
</g>
<g>
</g>
<g>
</g>
<g>
</g>
</svg>
