<?xml version="1.0" encoding="iso-8859-1"?>
<!-- Generator: Adobe Illustrator 19.0.0, SVG Export Plug-In . SVG Version: 6.00 Build 0)  -->
<svg xmlns="http://www.w3.org/2000/svg" xmlns:xlink="http://www.w3.org/1999/xlink" version="1.1" id="Capa_1" x="0px" y="0px" viewBox="0 0 512 512" style="enable-background:new 0 0 512 512;" xml:space="preserve">
<g>
	<g>
		<path d="M458.667,85.333c-17.707,0-32,14.293-32,32v117.333h-21.333V53.333c0-17.707-14.293-32-32-32s-32,14.293-32,32v181.333    H320V32c0-17.707-14.293-32-32-32s-32,14.293-32,32v202.667h-21.333V85.333c0-17.707-14.293-32-32-32s-32,14.293-32,32v254.08    c0,0-91.093-52.267-91.947-52.48c-3.84-2.133-8.107-3.413-12.8-3.413c-6.4,0-12.16,2.133-16.853,6.187    c-0.853,0.427-27.733,26.667-27.733,26.667L188.8,486.613c16,16.213,37.76,25.387,60.8,25.387h155.733    c46.933,0,85.333-38.4,85.333-85.333V117.333C490.667,99.627,476.373,85.333,458.667,85.333z"/>
	</g>
</g>
<g>
</g>
<g>
</g>
<g>
</g>
<g>
</g>
<g>
</g>
<g>
</g>
<g>
</g>
<g>
</g>
<g>
</g>
<g>
</g>
<g>
</g>
<g>
</g>
<g>
</g>
<g>
</g>
<g>
</g>
</svg>
