<?xml version="1.0" encoding="iso-8859-1"?>
<!-- Generator: Adobe Illustrator 19.0.0, SVG Export Plug-In . SVG Version: 6.00 Build 0)  -->
<svg xmlns="http://www.w3.org/2000/svg" xmlns:xlink="http://www.w3.org/1999/xlink" version="1.1" id="Capa_1" x="0px" y="0px" viewBox="0 0 512 512" style="enable-background:new 0 0 512 512;" xml:space="preserve">
<g>
	<g>
		<path d="M414.72,192.64l-85.973-85.973h-94.08v42.667h76.587L353.92,192H106.667C46.933,192,0,238.933,0,298.667    s46.933,106.667,106.667,106.667c52.48,0,94.933-36.053,104.533-85.333h35.2l59.093-59.093c-4.48,11.52-6.827,24.32-6.827,37.76    c0,59.733,46.933,106.667,106.667,106.667C465.067,405.333,512,358.4,512,298.667C512,242.133,469.973,196.907,414.72,192.64z     M166.827,320c-8.96,24.533-32.853,42.667-60.16,42.667c-34.773,0-64-29.227-64-64c0-34.773,29.227-64,64-64    c27.307,0,51.2,18.133,60.16,42.667h-60.16V320H166.827z M405.333,362.667c-35.413,0-64-28.587-64-64s28.587-64,64-64    s64,28.587,64,64S440.747,362.667,405.333,362.667z"/>
	</g>
</g>
<g>
</g>
<g>
</g>
<g>
</g>
<g>
</g>
<g>
</g>
<g>
</g>
<g>
</g>
<g>
</g>
<g>
</g>
<g>
</g>
<g>
</g>
<g>
</g>
<g>
</g>
<g>
</g>
<g>
</g>
</svg>
