<?xml version="1.0" encoding="iso-8859-1"?>
<!-- Generator: Adobe Illustrator 19.0.0, SVG Export Plug-In . SVG Version: 6.00 Build 0)  -->
<svg xmlns="http://www.w3.org/2000/svg" xmlns:xlink="http://www.w3.org/1999/xlink" version="1.1" id="Capa_1" x="0px" y="0px" viewBox="0 0 512 512" style="enable-background:new 0 0 512 512;" xml:space="preserve">
<g>
	<g>
		<g>
			<path d="M256,390.095c26.819,0,48.762-21.943,48.762-48.762c0-26.819-21.943-48.762-48.762-48.762     c-26.819,0-48.762,21.943-48.762,48.762C207.238,368.152,229.181,390.095,256,390.095z"/>
			<path d="M402.286,170.667h-24.381v-48.762C377.905,54.613,323.291,0,256,0S134.095,54.613,134.095,121.905v48.762h-24.381     c-26.819,0-48.762,21.943-48.762,48.762v243.81c0,26.819,21.943,48.762,48.762,48.762h292.571     c26.819,0,48.762-21.943,48.762-48.762v-243.81C451.048,192.61,429.105,170.667,402.286,170.667z M180.419,121.905     c0-41.691,33.89-75.581,75.581-75.581s75.581,33.89,75.581,75.581v48.762H180.419V121.905z M402.286,463.238H109.714v-243.81     h292.571V463.238z"/>
		</g>
	</g>
</g>
<g>
</g>
<g>
</g>
<g>
</g>
<g>
</g>
<g>
</g>
<g>
</g>
<g>
</g>
<g>
</g>
<g>
</g>
<g>
</g>
<g>
</g>
<g>
</g>
<g>
</g>
<g>
</g>
<g>
</g>
</svg>
