<?xml version="1.0" encoding="iso-8859-1"?>
<!-- Generator: Adobe Illustrator 19.0.0, SVG Export Plug-In . SVG Version: 6.00 Build 0)  -->
<svg xmlns="http://www.w3.org/2000/svg" xmlns:xlink="http://www.w3.org/1999/xlink" version="1.1" id="Capa_1" x="0px" y="0px" viewBox="0 0 426.667 426.667" style="enable-background:new 0 0 426.667 426.667;" xml:space="preserve">
<g>
	<g>
		<path d="M213.227,0C95.36,0,0,95.467,0,213.333s95.36,213.333,213.227,213.333s213.44-95.467,213.44-213.333S331.093,0,213.227,0z     M213.333,43.413c17.813,25.6,31.68,54.08,40.747,84.587h-81.493C181.653,97.493,195.52,69.013,213.333,43.413z M48.213,256    c-3.52-13.653-5.547-27.947-5.547-42.667s2.027-29.013,5.547-42.667h72c-1.707,13.973-2.88,28.16-2.88,42.667    s1.173,28.693,2.987,42.667H48.213z M65.6,298.667h62.933c6.933,26.667,16.64,52.267,29.44,76.053    C118.72,361.28,86.08,333.973,65.6,298.667z M128.533,128H65.6c20.48-35.307,53.12-62.613,92.373-76.053    C145.173,75.733,135.467,101.333,128.533,128z M213.333,383.253c-17.707-25.6-31.573-54.08-40.747-84.587h81.493    C244.907,329.173,231.04,357.653,213.333,383.253z M263.253,256h-99.84c-2.027-13.973-3.413-28.16-3.413-42.667    s1.387-28.693,3.413-42.667h99.84c2.027,13.973,3.413,28.16,3.413,42.667S265.28,242.027,263.253,256z M360.96,128h-62.933    c-6.933-26.667-16.64-52.267-29.44-75.947C307.84,65.493,340.48,92.693,360.96,128z M268.693,374.613L268.693,374.613    c12.8-23.787,22.507-49.28,29.44-75.947h62.933C340.48,333.973,307.84,361.173,268.693,374.613z M306.347,256    c1.707-13.973,2.987-28.16,2.987-42.667s-1.173-28.693-2.987-42.667h72c3.52,13.653,5.653,27.947,5.653,42.667    s-2.027,29.013-5.653,42.667H306.347z"/>
	</g>
</g>
<g>
</g>
<g>
</g>
<g>
</g>
<g>
</g>
<g>
</g>
<g>
</g>
<g>
</g>
<g>
</g>
<g>
</g>
<g>
</g>
<g>
</g>
<g>
</g>
<g>
</g>
<g>
</g>
<g>
</g>
</svg>
