<?xml version="1.0" encoding="iso-8859-1"?>
<!-- Generator: Adobe Illustrator 19.0.0, SVG Export Plug-In . SVG Version: 6.00 Build 0)  -->
<svg xmlns="http://www.w3.org/2000/svg" xmlns:xlink="http://www.w3.org/1999/xlink" version="1.1" id="Capa_1" x="0px" y="0px" viewBox="0 0 512 512" style="enable-background:new 0 0 512 512;" xml:space="preserve">
<g>
	<g>
		<g>
			<path d="M42.667,85.333h384V192h42.667V85.333c0-23.68-19.2-42.667-42.667-42.667h-384C18.987,42.667,0,61.653,0,85.333v256     C0,364.8,18.987,384,42.667,384H192v42.667h-42.667v42.667H320v-42.667h-42.667V384H320v-42.667H42.667V85.333z"/>
			<path d="M490.667,234.773L384,234.667c-11.733,0-21.333,9.6-21.333,21.333v192c0,11.733,9.6,21.333,21.333,21.333h106.667     c11.733,0,21.333-9.6,21.333-21.333V256C512,244.267,502.4,234.773,490.667,234.773z M490.667,426.667H384V277.333h106.667     V426.667z"/>
			<polygon points="234.667,128 213.973,192 149.333,192 202.027,229.547 181.973,291.627 234.667,253.227 287.36,291.627      267.307,229.547 320,192 255.36,192    "/>
		</g>
	</g>
</g>
<g>
</g>
<g>
</g>
<g>
</g>
<g>
</g>
<g>
</g>
<g>
</g>
<g>
</g>
<g>
</g>
<g>
</g>
<g>
</g>
<g>
</g>
<g>
</g>
<g>
</g>
<g>
</g>
<g>
</g>
</svg>
