<?xml version="1.0" encoding="iso-8859-1"?>
<!-- Generator: Adobe Illustrator 19.0.0, SVG Export Plug-In . SVG Version: 6.00 Build 0)  -->
<svg xmlns="http://www.w3.org/2000/svg" xmlns:xlink="http://www.w3.org/1999/xlink" version="1.1" id="Capa_1" x="0px" y="0px" viewBox="0 0 384 384" style="enable-background:new 0 0 384 384;" xml:space="preserve">
<g>
	<g>
		<g>
			<rect x="0" y="170.667" width="42.667" height="42.667"/>
			<path d="M42.667,384v-42.667H0C0,364.907,19.093,384,42.667,384z"/>
			<rect x="0" y="85.333" width="42.667" height="42.667"/>
			<rect x="0" y="256" width="42.667" height="42.667"/>
			<path d="M341.333,0H128c-23.573,0-42.667,19.093-42.667,42.667V256c0,23.573,19.093,42.667,42.667,42.667h213.333     C364.907,298.667,384,279.573,384,256V42.667C384,19.093,364.907,0,341.333,0z M341.333,256H128V42.667h213.333V256z"/>
			<rect x="85.333" y="341.333" width="42.667" height="42.667"/>
			<rect x="256" y="341.333" width="42.667" height="42.667"/>
			<rect x="170.667" y="341.333" width="42.667" height="42.667"/>
		</g>
	</g>
</g>
<g>
</g>
<g>
</g>
<g>
</g>
<g>
</g>
<g>
</g>
<g>
</g>
<g>
</g>
<g>
</g>
<g>
</g>
<g>
</g>
<g>
</g>
<g>
</g>
<g>
</g>
<g>
</g>
<g>
</g>
</svg>
