<?xml version="1.0" encoding="iso-8859-1"?>
<!-- Generator: Adobe Illustrator 19.0.0, SVG Export Plug-In . SVG Version: 6.00 Build 0)  -->
<svg xmlns="http://www.w3.org/2000/svg" xmlns:xlink="http://www.w3.org/1999/xlink" version="1.1" id="Capa_1" x="0px" y="0px" viewBox="0 0 373.12 373.12" style="enable-background:new 0 0 373.12 373.12;" xml:space="preserve">
<g>
	<g>
		<g>
			<path d="M149.333,42.667c29.44,0,56.107,11.947,75.413,31.253L170.667,128h128V0l-43.733,43.733     C227.947,16.747,190.613,0,149.333,0C74.133,0,12.053,55.68,1.707,128H44.8C54.72,79.36,97.707,42.667,149.333,42.667z"/>
			<path d="M269.653,237.547c14.187-19.307,23.787-42.133,27.307-66.88h-43.093C243.947,219.307,200.96,256,149.333,256     c-29.44,0-56.107-11.947-75.413-31.253l54.08-54.08H0v128l43.733-43.733c26.987,26.987,64.32,43.733,105.6,43.733     c33.067,0,63.573-10.88,88.32-29.12l103.68,103.573l31.787-31.787L269.653,237.547z"/>
		</g>
	</g>
</g>
<g>
</g>
<g>
</g>
<g>
</g>
<g>
</g>
<g>
</g>
<g>
</g>
<g>
</g>
<g>
</g>
<g>
</g>
<g>
</g>
<g>
</g>
<g>
</g>
<g>
</g>
<g>
</g>
<g>
</g>
</svg>
