<?xml version="1.0" encoding="iso-8859-1"?>
<!-- Generator: Adobe Illustrator 19.0.0, SVG Export Plug-In . SVG Version: 6.00 Build 0)  -->
<svg xmlns="http://www.w3.org/2000/svg" xmlns:xlink="http://www.w3.org/1999/xlink" version="1.1" id="Capa_1" x="0px" y="0px" viewBox="0 0 426.667 426.667" style="enable-background:new 0 0 426.667 426.667;" xml:space="preserve">
<g>
	<g>
		<path d="M309.333,17.6c-37.12,0-72.747,17.28-96,44.48c-23.253-27.2-58.88-44.48-96-44.48C51.52,17.6,0,69.12,0,134.933    c0,80.533,72.533,146.347,182.4,246.08l30.933,28.053l30.933-28.053c109.867-99.733,182.4-165.547,182.4-246.08    C426.667,69.12,375.147,17.6,309.333,17.6z M215.573,349.44l-2.24,2.027l-2.24-2.027    C109.653,257.387,42.667,196.587,42.667,134.933c0-42.56,32.107-74.667,74.667-74.667c32.853,0,64.853,21.227,76.053,50.347    h39.787c11.307-29.12,43.307-50.347,76.16-50.347c42.56,0,74.667,32.107,74.667,74.667    C384,196.587,317.013,257.387,215.573,349.44z"/>
	</g>
</g>
<g>
</g>
<g>
</g>
<g>
</g>
<g>
</g>
<g>
</g>
<g>
</g>
<g>
</g>
<g>
</g>
<g>
</g>
<g>
</g>
<g>
</g>
<g>
</g>
<g>
</g>
<g>
</g>
<g>
</g>
</svg>
