<?xml version="1.0" encoding="iso-8859-1"?>
<!-- Generator: Adobe Illustrator 19.0.0, SVG Export Plug-In . SVG Version: 6.00 Build 0)  -->
<svg xmlns="http://www.w3.org/2000/svg" xmlns:xlink="http://www.w3.org/1999/xlink" version="1.1" id="Capa_1" x="0px" y="0px" viewBox="0 0 426.667 426.667" style="enable-background:new 0 0 426.667 426.667;" xml:space="preserve">
<g>
	<g>
		<path d="M384,96h-64V53.333c0-23.573-19.093-42.667-42.667-42.667h-128c-23.573,0-42.667,19.093-42.667,42.667V96h-64    C19.093,96,0,115.093,0,138.667v234.667C0,396.907,19.093,416,42.667,416H384c23.573,0,42.667-19.093,42.667-42.667V138.667    C426.667,115.093,407.573,96,384,96z M149.333,53.333h128V96h-128V53.333z M384,373.333H42.667v-42.667H384V373.333z M384,266.667    H42.667v-128h64v42.667h42.667v-42.667h128v42.667H320v-42.667h64V266.667z"/>
	</g>
</g>
<g>
</g>
<g>
</g>
<g>
</g>
<g>
</g>
<g>
</g>
<g>
</g>
<g>
</g>
<g>
</g>
<g>
</g>
<g>
</g>
<g>
</g>
<g>
</g>
<g>
</g>
<g>
</g>
<g>
</g>
</svg>
