<?xml version="1.0" encoding="iso-8859-1"?>
<!-- Generator: Adobe Illustrator 19.0.0, SVG Export Plug-In . SVG Version: 6.00 Build 0)  -->
<svg xmlns="http://www.w3.org/2000/svg" xmlns:xlink="http://www.w3.org/1999/xlink" version="1.1" id="Capa_1" x="0px" y="0px" viewBox="0 0 469.333 469.333" style="enable-background:new 0 0 469.333 469.333;" xml:space="preserve">
<g>
	<g>
		<g>
			<path d="M106.667,234.667c0-70.72,57.28-128,128-128c21.653,0,41.92,5.44,59.84,14.827l31.147-31.147     C299.2,73.813,268.16,64,234.667,64C140.373,64,64,140.373,64,234.667H0L85.333,320l85.333-85.333H106.667z"/>
			<path d="M384,149.333l-85.333,85.333h64c0,70.72-57.28,128-128,128c-21.653,0-41.92-5.44-59.84-14.827l-31.147,31.147     c26.453,16.533,57.493,26.347,90.987,26.347c94.293,0,170.667-76.373,170.667-170.667h64L384,149.333z"/>
		</g>
	</g>
</g>
<g>
</g>
<g>
</g>
<g>
</g>
<g>
</g>
<g>
</g>
<g>
</g>
<g>
</g>
<g>
</g>
<g>
</g>
<g>
</g>
<g>
</g>
<g>
</g>
<g>
</g>
<g>
</g>
<g>
</g>
</svg>
