<?xml version="1.0" encoding="iso-8859-1"?>
<!-- Generator: Adobe Illustrator 19.0.0, SVG Export Plug-In . SVG Version: 6.00 Build 0)  -->
<svg xmlns="http://www.w3.org/2000/svg" xmlns:xlink="http://www.w3.org/1999/xlink" version="1.1" id="Capa_1" x="0px" y="0px" viewBox="0 0 469.333 469.333" style="enable-background:new 0 0 469.333 469.333;" xml:space="preserve">
<g>
	<g>
		<g>
			<path d="M378.88,143.787l-31.147,31.147c9.493,17.813,14.933,38.08,14.933,59.733c0,70.72-57.28,128-128,128v-64L149.333,384     l85.333,85.333v-64c94.293,0,170.667-76.373,170.667-170.667C405.333,201.173,395.52,170.133,378.88,143.787z"/>
			<path d="M234.667,106.667v64L320,85.333L234.667,0v64C140.373,64,64,140.373,64,234.667c0,33.493,9.813,64.533,26.453,90.88     L121.6,294.4c-9.493-17.813-14.933-38.08-14.933-59.733C106.667,163.947,163.947,106.667,234.667,106.667z"/>
		</g>
	</g>
</g>
<g>
</g>
<g>
</g>
<g>
</g>
<g>
</g>
<g>
</g>
<g>
</g>
<g>
</g>
<g>
</g>
<g>
</g>
<g>
</g>
<g>
</g>
<g>
</g>
<g>
</g>
<g>
</g>
<g>
</g>
</svg>
