<?xml version="1.0" encoding="iso-8859-1"?>
<!-- Generator: Adobe Illustrator 19.0.0, SVG Export Plug-In . SVG Version: 6.00 Build 0)  -->
<svg xmlns="http://www.w3.org/2000/svg" xmlns:xlink="http://www.w3.org/1999/xlink" version="1.1" id="Capa_1" x="0px" y="0px" viewBox="0 0 426.667 426.667" style="enable-background:new 0 0 426.667 426.667;" xml:space="preserve">
<g>
	<g>
		<path d="M362.667,42.667h-89.28C264.64,17.92,241.173,0,213.333,0s-51.307,17.92-60.053,42.667H64    c-23.573,0-42.667,19.093-42.667,42.667V384c0,23.573,19.093,42.667,42.667,42.667h298.667c23.573,0,42.667-19.093,42.667-42.667    V85.333C405.333,61.76,386.24,42.667,362.667,42.667z M234.667,362.667H192V320h42.667V362.667z M234.667,277.333H192v-128h42.667    V277.333z M213.333,85.333C201.6,85.333,192,75.84,192,64c0-11.84,9.6-21.333,21.333-21.333S234.667,52.16,234.667,64    C234.667,75.84,225.067,85.333,213.333,85.333z"/>
	</g>
</g>
<g>
</g>
<g>
</g>
<g>
</g>
<g>
</g>
<g>
</g>
<g>
</g>
<g>
</g>
<g>
</g>
<g>
</g>
<g>
</g>
<g>
</g>
<g>
</g>
<g>
</g>
<g>
</g>
<g>
</g>
</svg>
