<?xml version="1.0" encoding="iso-8859-1"?>
<!-- Generator: Adobe Illustrator 19.0.0, SVG Export Plug-In . SVG Version: 6.00 Build 0)  -->
<svg xmlns="http://www.w3.org/2000/svg" xmlns:xlink="http://www.w3.org/1999/xlink" version="1.1" id="Capa_1" x="0px" y="0px" viewBox="0 0 448 448" style="enable-background:new 0 0 448 448;" xml:space="preserve">
<g>
	<g>
		<g>
			<path d="M140.64,293.333c0-0.96,0.213-1.813,0.64-2.56L160.48,256h158.933c16,0,29.973-8.853,37.333-21.973L439.093,84.48     L401.76,64h-0.107l-23.573,42.667l-58.773,106.667H169.653l-2.773-5.76l-47.893-100.907L98.72,64L78.56,21.333H8.907V64h42.667     l76.8,161.813L99.467,278.08c-3.307,6.187-5.227,13.12-5.227,20.587c0,23.573,19.093,42.667,42.667,42.667h256v-42.667H145.973     C142.987,298.667,140.64,296.32,140.64,293.333z"/>
			<polygon points="222.24,170.667 264.907,170.667 264.907,106.667 328.907,106.667 328.907,64 264.907,64 264.907,0 222.24,0      222.24,64 158.24,64 158.24,106.667 222.24,106.667    "/>
			<path d="M136.907,362.667c-23.573,0-42.453,19.093-42.453,42.667S113.333,448,136.907,448c23.573,0,42.667-19.093,42.667-42.667     S160.48,362.667,136.907,362.667z"/>
			<path d="M350.24,362.667c-23.573,0-42.453,19.093-42.453,42.667S326.667,448,350.24,448c23.573,0,42.667-19.093,42.667-42.667     S373.813,362.667,350.24,362.667z"/>
		</g>
	</g>
</g>
<g>
</g>
<g>
</g>
<g>
</g>
<g>
</g>
<g>
</g>
<g>
</g>
<g>
</g>
<g>
</g>
<g>
</g>
<g>
</g>
<g>
</g>
<g>
</g>
<g>
</g>
<g>
</g>
<g>
</g>
</svg>
