<?xml version="1.0" encoding="iso-8859-1"?>
<!-- Generator: Adobe Illustrator 19.0.0, SVG Export Plug-In . SVG Version: 6.00 Build 0)  -->
<svg xmlns="http://www.w3.org/2000/svg" xmlns:xlink="http://www.w3.org/1999/xlink" version="1.1" id="Capa_1" x="0px" y="0px" viewBox="0 0 426.56 426.56" style="enable-background:new 0 0 426.56 426.56;" xml:space="preserve">
<g>
	<g>
		<path d="M320.213,261.333h-16.96l-5.867-5.867c20.907-24.213,33.493-55.68,33.493-90.133c0-76.587-62.08-138.56-138.667-138.56    S53.653,90.667,53.547,165.333H0l81.92,85.333l88.747-85.333H96.213C96.32,112,139.2,69.44,192.213,69.44s96,42.987,96,96    c0,53.013-42.987,96-96,96c-13.76,0-26.88-2.987-38.72-8.213L121.92,284.8c20.587,12.16,44.587,19.307,70.293,19.307    c34.453,0,65.813-12.587,90.027-33.387l5.76,5.76v16.853l106.773,106.453L426.56,368L320.213,261.333z"/>
	</g>
</g>
<g>
</g>
<g>
</g>
<g>
</g>
<g>
</g>
<g>
</g>
<g>
</g>
<g>
</g>
<g>
</g>
<g>
</g>
<g>
</g>
<g>
</g>
<g>
</g>
<g>
</g>
<g>
</g>
<g>
</g>
</svg>
