<?xml version="1.0" encoding="iso-8859-1"?>
<!-- Generator: Adobe Illustrator 19.0.0, SVG Export Plug-In . SVG Version: 6.00 Build 0)  -->
<svg xmlns="http://www.w3.org/2000/svg" xmlns:xlink="http://www.w3.org/1999/xlink" version="1.1" id="Capa_1" x="0px" y="0px" viewBox="0 0 384.107 384.107" style="enable-background:new 0 0 384.107 384.107;" xml:space="preserve">
<g>
	<g>
		<g>
			<polygon points="170.774,106.707 170.774,213.374 262.081,267.56 277.441,241.747 202.774,197.374 202.774,106.707    "/>
			<path d="M384.107,0.04l-58.347,59.947c-74.773-74.133-195.093-74.133-269.867,0c-74.88,74.133-74.347,194.347,0.533,268.48     s196.48,74.133,271.36,0c37.547-37.227,56.32-92.053,56.32-134.293h-42.773c0.107,42.24-14.4,75.627-43.413,104.427     c-58.24,57.707-152.533,57.707-210.773,0s-58.24-151.147,0-208.853s152.533-55.573,210.773,2.133l-58.56,60.16h144.747V0.04z"/>
		</g>
	</g>
</g>
<g>
</g>
<g>
</g>
<g>
</g>
<g>
</g>
<g>
</g>
<g>
</g>
<g>
</g>
<g>
</g>
<g>
</g>
<g>
</g>
<g>
</g>
<g>
</g>
<g>
</g>
<g>
</g>
<g>
</g>
</svg>
