<?xml version="1.0" encoding="iso-8859-1"?>
<!-- Generator: Adobe Illustrator 19.0.0, SVG Export Plug-In . SVG Version: 6.00 Build 0)  -->
<svg xmlns="http://www.w3.org/2000/svg" xmlns:xlink="http://www.w3.org/1999/xlink" version="1.1" id="Capa_1" x="0px" y="0px" viewBox="0 0 512 512" style="enable-background:new 0 0 512 512;" xml:space="preserve">
<g>
	<g>
		<path d="M465.455,116.364c-25.6,0-46.545,20.945-46.545,46.545c0,4.189,0.465,8.145,1.629,11.869l-82.618,82.851    c-3.724-1.164-7.913-1.629-12.102-1.629s-8.378,0.465-12.102,1.629l-59.345-59.345c1.164-3.724,1.629-7.913,1.629-12.102    c0-25.6-20.945-46.545-46.545-46.545c-25.6,0-46.545,20.945-46.545,46.545c0,4.189,0.465,8.378,1.629,12.102L58.415,304.175    c-3.724-1.164-7.68-1.629-11.869-1.629C20.945,302.545,0,323.491,0,349.091c0,25.6,20.945,46.545,46.545,46.545    c25.6,0,46.545-20.945,46.545-46.545c0-4.189-0.466-8.146-1.629-11.869l105.891-106.124c3.724,1.164,7.913,1.629,12.102,1.629    c4.189,0,8.378-0.465,12.102-1.629l59.345,59.346c-1.164,3.724-1.629,7.913-1.629,12.102c0,25.6,20.945,46.545,46.545,46.545    c25.6,0,46.545-20.945,46.545-46.545c0-4.189-0.465-8.378-1.629-12.102l82.851-82.618c3.724,1.164,7.68,1.629,11.869,1.629    c25.6,0,46.545-20.945,46.545-46.545C512,137.309,491.055,116.364,465.455,116.364z"/>
	</g>
</g>
<g>
</g>
<g>
</g>
<g>
</g>
<g>
</g>
<g>
</g>
<g>
</g>
<g>
</g>
<g>
</g>
<g>
</g>
<g>
</g>
<g>
</g>
<g>
</g>
<g>
</g>
<g>
</g>
<g>
</g>
</svg>
