<?xml version="1.0" encoding="iso-8859-1"?>
<!-- Generator: Adobe Illustrator 19.0.0, SVG Export Plug-In . SVG Version: 6.00 Build 0)  -->
<svg xmlns="http://www.w3.org/2000/svg" xmlns:xlink="http://www.w3.org/1999/xlink" version="1.1" id="Capa_1" x="0px" y="0px" viewBox="0 0 469.333 469.333" style="enable-background:new 0 0 469.333 469.333;" xml:space="preserve">
<g>
	<g>
		<g>
			<rect x="0" y="192" width="85.333" height="256"/>
			<path d="M469.333,213.333c0-23.573-19.093-42.667-42.667-42.667h-134.72l20.373-97.493c0.427-2.133,0.747-4.373,0.747-6.72     c0-8.853-3.627-16.853-9.387-22.613l-22.72-22.507l-140.48,140.48C132.8,169.6,128,180.267,128,192v213.333     C128,428.907,147.093,448,170.667,448h192c17.707,0,32.853-10.773,39.253-26.027l64.32-150.4     c1.92-4.907,3.093-10.133,3.093-15.573v-40.853l-0.213-0.213L469.333,213.333z"/>
		</g>
	</g>
</g>
<g>
</g>
<g>
</g>
<g>
</g>
<g>
</g>
<g>
</g>
<g>
</g>
<g>
</g>
<g>
</g>
<g>
</g>
<g>
</g>
<g>
</g>
<g>
</g>
<g>
</g>
<g>
</g>
<g>
</g>
</svg>
