<?xml version="1.0" encoding="iso-8859-1"?>
<!-- Generator: Adobe Illustrator 19.0.0, SVG Export Plug-In . SVG Version: 6.00 Build 0)  -->
<svg xmlns="http://www.w3.org/2000/svg" xmlns:xlink="http://www.w3.org/1999/xlink" version="1.1" id="Capa_1" x="0px" y="0px" viewBox="0 0 469.333 469.333" style="enable-background:new 0 0 469.333 469.333;" xml:space="preserve">
<g>
	<g>
		<g>
			<rect x="0" y="128" width="42.667" height="42.667"/>
			<path d="M0,85.333h42.667V42.667C19.093,42.667,0,61.76,0,85.333z"/>
			<rect x="85.333" y="42.667" width="42.667" height="42.667"/>
			<rect x="0" y="298.667" width="42.667" height="42.667"/>
			<path d="M42.667,426.667V384H0C0,407.573,19.093,426.667,42.667,426.667z"/>
			<rect x="0" y="213.333" width="42.667" height="42.667"/>
			<rect x="170.667" y="384" width="42.667" height="42.667"/>
			<rect x="85.333" y="384" width="42.667" height="42.667"/>
			<rect x="426.667" y="213.333" width="42.667" height="42.667"/>
			<rect x="426.667" y="298.667" width="42.667" height="42.667"/>
			<rect x="170.667" y="42.667" width="42.667" height="42.667"/>
			<path d="M426.667,42.667H256v128h213.333V85.333C469.333,61.76,450.24,42.667,426.667,42.667z"/>
			<path d="M426.667,426.667c23.573,0,42.667-19.093,42.667-42.667h-42.667V426.667z"/>
			<rect x="256" y="384" width="42.667" height="42.667"/>
			<rect x="341.333" y="384" width="42.667" height="42.667"/>
		</g>
	</g>
</g>
<g>
</g>
<g>
</g>
<g>
</g>
<g>
</g>
<g>
</g>
<g>
</g>
<g>
</g>
<g>
</g>
<g>
</g>
<g>
</g>
<g>
</g>
<g>
</g>
<g>
</g>
<g>
</g>
<g>
</g>
</svg>
