<?xml version="1.0" encoding="iso-8859-1"?>
<!-- Generator: Adobe Illustrator 19.0.0, SVG Export Plug-In . SVG Version: 6.00 Build 0)  -->
<svg xmlns="http://www.w3.org/2000/svg" xmlns:xlink="http://www.w3.org/1999/xlink" version="1.1" id="Capa_1" x="0px" y="0px" viewBox="0 0 490.667 490.667" style="enable-background:new 0 0 490.667 490.667;" xml:space="preserve">
<g>
	<g>
		<g>
			<rect x="138.667" y="448" width="42.667" height="42.667"/>
			<path d="M245.333,256c35.307,0,63.787-28.693,63.787-64l0.213-128c0-35.413-28.587-64-64-64c-35.307,0-64,28.587-64,64v128     C181.333,227.307,210.027,256,245.333,256z"/>
			<rect x="224" y="448" width="42.667" height="42.667"/>
			<path d="M358.4,192c0,64-54.08,108.8-113.067,108.8c-58.88,0-113.067-44.8-113.067-108.8H96c0,72.853,58.027,133.013,128,143.36     v69.973h42.667V335.36c69.973-10.347,128-70.507,128-143.36H358.4z"/>
			<rect x="309.333" y="448" width="42.667" height="42.667"/>
		</g>
	</g>
</g>
<g>
</g>
<g>
</g>
<g>
</g>
<g>
</g>
<g>
</g>
<g>
</g>
<g>
</g>
<g>
</g>
<g>
</g>
<g>
</g>
<g>
</g>
<g>
</g>
<g>
</g>
<g>
</g>
<g>
</g>
</svg>
