<?xml version="1.0" encoding="iso-8859-1"?>
<!-- Generator: Adobe Illustrator 19.0.0, SVG Export Plug-In . SVG Version: 6.00 Build 0)  -->
<svg xmlns="http://www.w3.org/2000/svg" xmlns:xlink="http://www.w3.org/1999/xlink" version="1.1" id="Capa_1" x="0px" y="0px" viewBox="0 0 490.667 490.667" style="enable-background:new 0 0 490.667 490.667;" xml:space="preserve">
<g>
	<g>
		<g>
			<path d="M245.333,0C180.587,0,121.92,26.24,79.36,68.693l30.187,30.187c34.773-34.773,82.773-56.213,135.787-56.213     S346.347,64.107,381.12,98.88l30.187-30.187C368.747,26.24,310.08,0,245.333,0z"/>
			<path d="M309.333,192h-128c-11.84,0-21.333,9.6-21.333,21.333v256c0,11.733,9.493,21.333,21.333,21.333h128     c11.84,0,21.333-9.6,21.333-21.333v-256C330.667,201.6,321.173,192,309.333,192z M245.333,320     c-23.573,0-42.667-19.093-42.667-42.667c0-23.573,19.093-42.667,42.667-42.667S288,253.76,288,277.333     C288,300.907,268.907,320,245.333,320z"/>
			<path d="M139.733,129.067l30.187,30.187C189.227,139.947,215.893,128,245.333,128s56.107,11.947,75.413,31.253l30.187-30.187     c-26.987-26.987-64.32-43.733-105.6-43.733S166.72,102.08,139.733,129.067z"/>
		</g>
	</g>
</g>
<g>
</g>
<g>
</g>
<g>
</g>
<g>
</g>
<g>
</g>
<g>
</g>
<g>
</g>
<g>
</g>
<g>
</g>
<g>
</g>
<g>
</g>
<g>
</g>
<g>
</g>
<g>
</g>
<g>
</g>
</svg>
