<?xml version="1.0" encoding="iso-8859-1"?>
<!-- Generator: Adobe Illustrator 19.0.0, SVG Export Plug-In . SVG Version: 6.00 Build 0)  -->
<svg xmlns="http://www.w3.org/2000/svg" xmlns:xlink="http://www.w3.org/1999/xlink" version="1.1" id="Capa_1" x="0px" y="0px" viewBox="0 0 469.333 469.333" style="enable-background:new 0 0 469.333 469.333;" xml:space="preserve">
<g>
	<g>
		<g>
			<path d="M298.667,117.333c0-17.707-14.293-32-32-32h-64c-17.707,0-32,14.293-32,32s14.293,32,32,32h64     C284.373,149.333,298.667,135.04,298.667,117.333z"/>
			<path d="M160,298.667c-17.707,0-32,14.293-32,32s14.293,32,32,32s32-14.293,32-32S177.707,298.667,160,298.667z"/>
			<path d="M149.333,224c0-17.707-14.293-32-32-32s-32,14.293-32,32s14.293,32,32,32S149.333,241.707,149.333,224z"/>
			<path d="M352,192c-17.707,0-32,14.293-32,32s14.293,32,32,32s32-14.293,32-32S369.707,192,352,192z"/>
			<path d="M234.667,0C105.28,0,0,105.28,0,234.667s105.28,234.667,234.667,234.667s234.667-105.28,234.667-234.667     S364.053,0,234.667,0z M234.667,426.667c-105.92,0-192-86.187-192-192s86.08-192,192-192s192,86.187,192,192     S340.587,426.667,234.667,426.667z"/>
			<path d="M309.333,298.667c-17.707,0-32,14.293-32,32s14.293,32,32,32s32-14.293,32-32S327.04,298.667,309.333,298.667z"/>
		</g>
	</g>
</g>
<g>
</g>
<g>
</g>
<g>
</g>
<g>
</g>
<g>
</g>
<g>
</g>
<g>
</g>
<g>
</g>
<g>
</g>
<g>
</g>
<g>
</g>
<g>
</g>
<g>
</g>
<g>
</g>
<g>
</g>
</svg>
