<?xml version="1.0" encoding="iso-8859-1"?>
<!-- Generator: Adobe Illustrator 19.0.0, SVG Export Plug-In . SVG Version: 6.00 Build 0)  -->
<svg xmlns="http://www.w3.org/2000/svg" xmlns:xlink="http://www.w3.org/1999/xlink" version="1.1" id="Capa_1" x="0px" y="0px" viewBox="0 0 469.333 469.333" style="enable-background:new 0 0 469.333 469.333;" xml:space="preserve">
<g>
	<g>
		<g>
			<path d="M170.667,320c0,27.84,17.92,51.307,42.667,60.053v89.28H256v-89.28c24.747-8.853,42.667-32.213,42.667-60.053v-42.667     h-128V320z"/>
			<path d="M85.333,21.333C85.333,9.6,75.84,0,64,0C52.16,0,42.667,9.6,42.667,21.333v85.333H0v128h128v-128H85.333V21.333z"/>
			<path d="M0,320c0,27.84,17.92,51.307,42.667,60.053v89.28h42.667v-89.28C110.08,371.2,128,347.84,128,320v-42.667H0V320z"/>
			<path d="M426.667,106.667V21.333C426.667,9.6,417.173,0,405.333,0S384,9.6,384,21.333v85.333h-42.667v128h128v-128H426.667z"/>
			<path d="M341.333,320c0,27.84,17.92,51.307,42.667,60.053v89.28h42.667v-89.28c24.747-8.853,42.667-32.213,42.667-60.053v-42.667     h-128V320z"/>
			<path d="M256,21.333C256,9.6,246.507,0,234.667,0s-21.333,9.6-21.333,21.333v85.333h-42.667v128h128v-128H256V21.333z"/>
		</g>
	</g>
</g>
<g>
</g>
<g>
</g>
<g>
</g>
<g>
</g>
<g>
</g>
<g>
</g>
<g>
</g>
<g>
</g>
<g>
</g>
<g>
</g>
<g>
</g>
<g>
</g>
<g>
</g>
<g>
</g>
<g>
</g>
</svg>
