<?xml version="1.0" encoding="iso-8859-1"?>
<!-- Generator: Adobe Illustrator 19.0.0, SVG Export Plug-In . SVG Version: 6.00 Build 0)  -->
<svg xmlns="http://www.w3.org/2000/svg" xmlns:xlink="http://www.w3.org/1999/xlink" version="1.1" id="Capa_1" x="0px" y="0px" viewBox="0 0 469.333 469.333" style="enable-background:new 0 0 469.333 469.333;" xml:space="preserve">
<g>
	<g>
		<g>
			<path d="M149.333,320h53.333l32,32l32-32H320v-53.333l32-32l-32-32v-53.333h-53.333l-32-32l-32,32h-53.333v53.333l-32,32l32,32     V320z M234.667,170.667c35.307,0,64,28.693,64,64s-28.693,64-64,64V170.667z"/>
			<path d="M426.667,42.667h-384C19.093,42.667,0,61.76,0,85.333V384c0,23.573,19.093,42.667,42.667,42.667h384     c23.573,0,42.667-19.093,42.667-42.667V85.333C469.333,61.76,450.24,42.667,426.667,42.667z M426.667,384.32h-384V85.013h384     V384.32z"/>
		</g>
	</g>
</g>
<g>
</g>
<g>
</g>
<g>
</g>
<g>
</g>
<g>
</g>
<g>
</g>
<g>
</g>
<g>
</g>
<g>
</g>
<g>
</g>
<g>
</g>
<g>
</g>
<g>
</g>
<g>
</g>
<g>
</g>
</svg>
