<?xml version="1.0" encoding="iso-8859-1"?>
<!-- Generator: Adobe Illustrator 19.0.0, SVG Export Plug-In . SVG Version: 6.00 Build 0)  -->
<svg xmlns="http://www.w3.org/2000/svg" xmlns:xlink="http://www.w3.org/1999/xlink" version="1.1" id="Capa_1" x="0px" y="0px" viewBox="0 0 512 512" style="enable-background:new 0 0 512 512;" xml:space="preserve">
<g>
	<g>
		<g>
			<path d="M311.652,89.043c24.487,0,44.522-20.035,44.522-44.522S336.139,0,311.652,0c-24.487,0-44.522,20.035-44.522,44.522     S287.165,89.043,311.652,89.043z"/>
			<polygon points="66.783,400.696 100.174,434.087 178.087,356.174 222.609,356.174 166.957,300.522    "/>
			<path d="M378.435,378.435h-33.391L205.023,238.414c19.144-8.237,36.953-19.367,50.977-30.943v50.532l79.694,79.694     c12.689-12.243,20.48-29.384,20.48-48.083v-128c0-27.603-22.484-50.087-50.087-50.31h-0.668c-7.569,0-14.915,2.004-21.37,5.12     c-5.788,2.671-11.13,6.456-15.36,11.13l-31.165,34.504c-23.596,26.045-67.005,46.08-103.958,45.412v48.083     c6.678,0,13.357-0.445,20.257-1.558l158.052,157.83v33.169L378.435,512l66.783-66.56L378.435,378.435z"/>
		</g>
	</g>
</g>
<g>
</g>
<g>
</g>
<g>
</g>
<g>
</g>
<g>
</g>
<g>
</g>
<g>
</g>
<g>
</g>
<g>
</g>
<g>
</g>
<g>
</g>
<g>
</g>
<g>
</g>
<g>
</g>
<g>
</g>
</svg>
