<?xml version="1.0" encoding="iso-8859-1"?>
<!-- Generator: Adobe Illustrator 19.0.0, SVG Export Plug-In . SVG Version: 6.00 Build 0)  -->
<svg xmlns="http://www.w3.org/2000/svg" xmlns:xlink="http://www.w3.org/1999/xlink" version="1.1" id="Capa_1" x="0px" y="0px" viewBox="0 0 484.907 484.907" style="enable-background:new 0 0 484.907 484.907;" xml:space="preserve">
<g>
	<g>
		<g>
			<path d="M331.733,250.24c16,0,30.08-8.747,37.333-21.973L445.44,89.813c1.707-2.987,2.56-6.613,2.56-10.24     c0-11.733-9.6-21.333-21.333-21.333H139.52l192,192H331.733z"/>
			<path d="M59.093,32L42.667,15.573L27.093,0L0,27.093l93.653,93.653L140.8,220.16L112,272.427     c-3.413,5.973-5.333,13.013-5.333,20.48c0,23.467,19.2,42.667,42.667,42.667H308.48l29.44,29.44     c-10.667,7.787-17.707,20.373-17.707,34.56c0,23.467,18.987,42.667,42.453,42.667c14.187,0,26.773-7.147,34.56-17.92     l60.587,60.587l27.093-27.093L59.093,32z M158.293,292.907c-2.987,0-5.333-2.347-5.333-5.333l0.64-2.56l19.2-34.773h50.347     l42.667,42.667H158.293z"/>
			<path d="M149.333,356.907c-23.467,0-42.453,19.2-42.453,42.667s18.987,42.667,42.453,42.667c23.467,0,42.667-19.2,42.667-42.667     S172.8,356.907,149.333,356.907z"/>
		</g>
	</g>
</g>
<g>
</g>
<g>
</g>
<g>
</g>
<g>
</g>
<g>
</g>
<g>
</g>
<g>
</g>
<g>
</g>
<g>
</g>
<g>
</g>
<g>
</g>
<g>
</g>
<g>
</g>
<g>
</g>
<g>
</g>
</svg>
