<?xml version="1.0" encoding="iso-8859-1"?>
<!-- Generator: Adobe Illustrator 19.0.0, SVG Export Plug-In . SVG Version: 6.00 Build 0)  -->
<svg xmlns="http://www.w3.org/2000/svg" xmlns:xlink="http://www.w3.org/1999/xlink" version="1.1" id="Capa_1" x="0px" y="0px" viewBox="0 0 426.667 426.667" style="enable-background:new 0 0 426.667 426.667;" xml:space="preserve">
<g>
	<g>
		<path d="M384,96h-46.613c2.347-6.72,3.947-13.76,3.947-21.333c0-35.307-28.693-64-64-64c-22.293,0-41.92,11.413-53.333,28.693    l-10.667,14.507L202.667,39.36c-11.413-17.28-31.04-28.693-53.333-28.693c-35.307,0-64,28.693-64,64    c0,7.573,1.493,14.613,3.947,21.333H42.667c-23.573,0-42.453,19.093-42.453,42.667L0,373.333C0,396.907,19.093,416,42.667,416H384    c23.573,0,42.667-19.093,42.667-42.667V138.667C426.667,115.093,407.573,96,384,96z M277.333,53.333    c11.733,0,21.333,9.6,21.333,21.333S289.067,96,277.333,96S256,86.4,256,74.667S265.6,53.333,277.333,53.333z M149.333,53.333    c11.733,0,21.333,9.6,21.333,21.333S161.067,96,149.333,96S128,86.4,128,74.667S137.6,53.333,149.333,53.333z M384,373.333H42.667    v-42.667H384V373.333z M384,266.667H42.667v-128H151.04l-44.373,60.48L141.333,224L192,154.987l21.333-29.013l21.333,29.013    L285.333,224L320,199.147l-44.373-60.48H384V266.667z"/>
	</g>
</g>
<g>
</g>
<g>
</g>
<g>
</g>
<g>
</g>
<g>
</g>
<g>
</g>
<g>
</g>
<g>
</g>
<g>
</g>
<g>
</g>
<g>
</g>
<g>
</g>
<g>
</g>
<g>
</g>
<g>
</g>
</svg>
