<?xml version="1.0" encoding="iso-8859-1"?>
<!-- Generator: Adobe Illustrator 19.0.0, SVG Export Plug-In . SVG Version: 6.00 Build 0)  -->
<svg xmlns="http://www.w3.org/2000/svg" xmlns:xlink="http://www.w3.org/1999/xlink" version="1.1" id="Capa_1" x="0px" y="0px" viewBox="0 0 426.667 426.667" style="enable-background:new 0 0 426.667 426.667;" xml:space="preserve">
<g>
	<g>
		<path d="M373.333,32l-32-32l-32,32l-32-32l-32,32l-32-32l-32,32l-32-32l-32,32l-32-32l-32,32l-32-32v426.667l32-32l32,32l32-32    l32,32l32-32l32,32l32-32l32,32l32-32l32,32l32-32l32,32V0L373.333,32z M341.333,320h-256v-42.667h256V320z M341.333,234.667h-256    V192h256V234.667z M341.333,149.333h-256v-42.667h256V149.333z"/>
	</g>
</g>
<g>
</g>
<g>
</g>
<g>
</g>
<g>
</g>
<g>
</g>
<g>
</g>
<g>
</g>
<g>
</g>
<g>
</g>
<g>
</g>
<g>
</g>
<g>
</g>
<g>
</g>
<g>
</g>
<g>
</g>
</svg>
