<?xml version="1.0" encoding="iso-8859-1"?>
<!-- Generator: Adobe Illustrator 19.0.0, SVG Export Plug-In . SVG Version: 6.00 Build 0)  -->
<svg xmlns="http://www.w3.org/2000/svg" xmlns:xlink="http://www.w3.org/1999/xlink" version="1.1" id="Capa_1" x="0px" y="0px" viewBox="0 0 426.667 426.667" style="enable-background:new 0 0 426.667 426.667;" xml:space="preserve">
<g>
	<g>
		<g>
			<rect x="85.333" y="21.333" width="256" height="85.333"/>
			<path d="M362.667,128H64c-35.307,0-64,28.693-64,64v128h85.333v85.333h256V320h85.333V192     C426.667,156.693,397.973,128,362.667,128z M298.667,362.667H128V256h170.667V362.667z M362.667,213.333     c-11.84,0-21.333-9.493-21.333-21.333c0-11.84,9.493-21.333,21.333-21.333c11.84,0,21.333,9.493,21.333,21.333     C384,203.84,374.507,213.333,362.667,213.333z"/>
		</g>
	</g>
</g>
<g>
</g>
<g>
</g>
<g>
</g>
<g>
</g>
<g>
</g>
<g>
</g>
<g>
</g>
<g>
</g>
<g>
</g>
<g>
</g>
<g>
</g>
<g>
</g>
<g>
</g>
<g>
</g>
<g>
</g>
</svg>
