<?xml version="1.0" encoding="iso-8859-1"?>
<!-- Generator: Adobe Illustrator 19.0.0, SVG Export Plug-In . SVG Version: 6.00 Build 0)  -->
<svg xmlns="http://www.w3.org/2000/svg" xmlns:xlink="http://www.w3.org/1999/xlink" version="1.1" id="Capa_1" x="0px" y="0px" viewBox="0 0 512 512" style="enable-background:new 0 0 512 512;" xml:space="preserve">
<g>
	<g>
		<g>
			<path d="M42.667,128H0v106.667h0.213L0,426.667c0,23.573,19.093,42.667,42.667,42.667h384v-42.667h-384V128z"/>
			<path d="M469.333,85.333H298.667L256,42.667H128c-23.573,0-42.453,19.093-42.453,42.667l-0.213,256     C85.333,364.907,104.427,384,128,384h341.333C492.907,384,512,364.907,512,341.333V128     C512,104.427,492.907,85.333,469.333,85.333z M149.333,320l96-128L320,288.107L373.333,224L448,320H149.333z"/>
		</g>
	</g>
</g>
<g>
</g>
<g>
</g>
<g>
</g>
<g>
</g>
<g>
</g>
<g>
</g>
<g>
</g>
<g>
</g>
<g>
</g>
<g>
</g>
<g>
</g>
<g>
</g>
<g>
</g>
<g>
</g>
<g>
</g>
</svg>
