<?xml version="1.0" encoding="iso-8859-1"?>
<!-- Generator: Adobe Illustrator 19.0.0, SVG Export Plug-In . SVG Version: 6.00 Build 0)  -->
<svg xmlns="http://www.w3.org/2000/svg" xmlns:xlink="http://www.w3.org/1999/xlink" version="1.1" id="Capa_1" x="0px" y="0px" viewBox="0 0 426.667 426.667" style="enable-background:new 0 0 426.667 426.667;" xml:space="preserve">
<g>
	<g>
		<path d="M362.667,42.667h-21.333V0h-42.667v42.667H128V0H85.333v42.667H64c-23.573,0-42.667,19.093-42.667,42.667V384    c0,23.573,19.093,42.667,42.667,42.667h298.667c23.573,0,42.667-19.093,42.667-42.667V85.333    C405.333,61.76,386.24,42.667,362.667,42.667z M213.333,106.667c35.307,0,64,28.693,64,64c0,35.413-28.693,64-64,64    s-64-28.587-64-64C149.333,135.36,178.027,106.667,213.333,106.667z M341.333,362.667h-256v-21.333    c0-42.667,85.333-66.133,128-66.133s128,23.467,128,66.133V362.667z"/>
	</g>
</g>
<g>
</g>
<g>
</g>
<g>
</g>
<g>
</g>
<g>
</g>
<g>
</g>
<g>
</g>
<g>
</g>
<g>
</g>
<g>
</g>
<g>
</g>
<g>
</g>
<g>
</g>
<g>
</g>
<g>
</g>
</svg>
