<?xml version="1.0" encoding="iso-8859-1"?>
<!-- Generator: Adobe Illustrator 19.0.0, SVG Export Plug-In . SVG Version: 6.00 Build 0)  -->
<svg xmlns="http://www.w3.org/2000/svg" xmlns:xlink="http://www.w3.org/1999/xlink" version="1.1" id="Capa_1" x="0px" y="0px" viewBox="0 0 426.667 426.667" style="enable-background:new 0 0 426.667 426.667;" xml:space="preserve">
<g>
	<g>
		<g>
			<path d="M202.667,149.333c-29.44,0-53.333,23.893-53.333,53.333S173.227,256,202.667,256S256,232.107,256,202.667     S232.107,149.333,202.667,149.333z"/>
			<path d="M384,42.667H42.667C19.093,42.667,0,61.76,0,85.333v256C0,364.907,19.093,384,42.667,384H384     c23.573,0,42.667-19.093,42.667-42.667v-256C426.667,61.76,407.573,42.667,384,42.667z M315.627,345.707L315.627,345.707     l-61.973-61.973c-14.827,9.387-32.213,14.933-50.987,14.933c-53.013,0-96-42.987-96-96c0-53.013,42.987-96,96-96     c53.013,0,96,42.987,96,96c0,18.773-5.547,36.16-14.933,50.88l62.08,61.867L315.627,345.707z"/>
		</g>
	</g>
</g>
<g>
</g>
<g>
</g>
<g>
</g>
<g>
</g>
<g>
</g>
<g>
</g>
<g>
</g>
<g>
</g>
<g>
</g>
<g>
</g>
<g>
</g>
<g>
</g>
<g>
</g>
<g>
</g>
<g>
</g>
</svg>
