<?xml version="1.0" encoding="iso-8859-1"?>
<!-- Generator: Adobe Illustrator 19.0.0, SVG Export Plug-In . SVG Version: 6.00 Build 0)  -->
<svg xmlns="http://www.w3.org/2000/svg" xmlns:xlink="http://www.w3.org/1999/xlink" version="1.1" id="Capa_1" x="0px" y="0px" viewBox="0 0 426.667 426.667" style="enable-background:new 0 0 426.667 426.667;" xml:space="preserve">
<g>
	<g>
		<path d="M414.08,204.373L222.187,12.48C214.507,4.8,203.84,0,192,0H42.667C19.093,0,0,19.093,0,42.667V192    c0,11.84,4.8,22.507,12.587,30.187l192,192c7.68,7.68,18.347,12.48,30.08,12.48c11.84,0,22.507-4.8,30.187-12.48l149.333-149.333    c7.68-7.787,12.48-18.453,12.48-30.187C426.667,222.827,421.867,212.16,414.08,204.373z M74.667,106.667    c-17.707,0-32-14.293-32-32s14.293-32,32-32s32,14.293,32,32S92.373,106.667,74.667,106.667z M325.76,283.093l-91.093,91.093    l-91.093-91.093c-9.6-9.707-15.573-23.04-15.573-37.76c0-29.44,23.893-53.333,53.333-53.333c14.72,0,28.16,5.973,37.76,15.68    l15.573,15.573l15.573-15.573C259.947,197.973,273.28,192,288,192c29.44,0,53.333,23.893,53.333,53.333    C341.333,260.053,335.36,273.387,325.76,283.093z"/>
	</g>
</g>
<g>
</g>
<g>
</g>
<g>
</g>
<g>
</g>
<g>
</g>
<g>
</g>
<g>
</g>
<g>
</g>
<g>
</g>
<g>
</g>
<g>
</g>
<g>
</g>
<g>
</g>
<g>
</g>
<g>
</g>
</svg>
