<?xml version="1.0" encoding="iso-8859-1"?>
<!-- Generator: Adobe Illustrator 19.0.0, SVG Export Plug-In . SVG Version: 6.00 Build 0)  -->
<svg xmlns="http://www.w3.org/2000/svg" xmlns:xlink="http://www.w3.org/1999/xlink" version="1.1" id="Capa_1" x="0px" y="0px" viewBox="0 0 469.333 469.333" style="enable-background:new 0 0 469.333 469.333;" xml:space="preserve">
<g>
	<g>
		<g>
			<polygon points="74.667,213.333 32,213.333 32,170.667 0,170.667 0,298.667 32,298.667 32,245.333 74.667,245.333      74.667,298.667 106.667,298.667 106.667,170.667 74.667,170.667    "/>
			<polygon points="128,202.667 160,202.667 160,298.667 192,298.667 192,202.667 224,202.667 224,170.667 128,170.667    "/>
			<polygon points="245.333,202.667 277.333,202.667 277.333,298.667 309.333,298.667 309.333,202.667 341.333,202.667      341.333,170.667 245.333,170.667    "/>
			<path d="M437.333,170.667h-74.667v128h32V256h42.667c18.133,0,32-13.867,32-32v-21.333     C469.333,184.533,455.467,170.667,437.333,170.667z M437.333,224h-42.667v-21.333h42.667V224z"/>
		</g>
	</g>
</g>
<g>
</g>
<g>
</g>
<g>
</g>
<g>
</g>
<g>
</g>
<g>
</g>
<g>
</g>
<g>
</g>
<g>
</g>
<g>
</g>
<g>
</g>
<g>
</g>
<g>
</g>
<g>
</g>
<g>
</g>
</svg>
