<?xml version="1.0" encoding="iso-8859-1"?>
<!-- Generator: Adobe Illustrator 19.0.0, SVG Export Plug-In . SVG Version: 6.00 Build 0)  -->
<svg xmlns="http://www.w3.org/2000/svg" xmlns:xlink="http://www.w3.org/1999/xlink" version="1.1" id="Capa_1" x="0px" y="0px" viewBox="0 0 426.667 426.667" style="enable-background:new 0 0 426.667 426.667;" xml:space="preserve">
<g>
	<g>
		<g>
			<rect x="192" y="298.667" width="42.667" height="42.667"/>
			<path d="M213.333,85.333c-47.147,0-85.333,38.187-85.333,85.333h42.667c0-23.467,19.2-42.667,42.667-42.667     S256,147.2,256,170.667c0,42.667-64,37.333-64,106.667h42.667c0-48,64-53.333,64-106.667     C298.667,123.52,260.48,85.333,213.333,85.333z"/>
			<path d="M213.333,0C95.573,0,0,95.573,0,213.333s95.573,213.333,213.333,213.333s213.333-95.573,213.333-213.333     S331.093,0,213.333,0z M213.333,384c-94.08,0-170.667-76.587-170.667-170.667S119.253,42.667,213.333,42.667     S384,119.253,384,213.333S307.413,384,213.333,384z"/>
		</g>
	</g>
</g>
<g>
</g>
<g>
</g>
<g>
</g>
<g>
</g>
<g>
</g>
<g>
</g>
<g>
</g>
<g>
</g>
<g>
</g>
<g>
</g>
<g>
</g>
<g>
</g>
<g>
</g>
<g>
</g>
<g>
</g>
</svg>
