<?xml version="1.0" encoding="iso-8859-1"?>
<!-- Generator: Adobe Illustrator 19.0.0, SVG Export Plug-In . SVG Version: 6.00 Build 0)  -->
<svg xmlns="http://www.w3.org/2000/svg" xmlns:xlink="http://www.w3.org/1999/xlink" version="1.1" id="Capa_1" x="0px" y="0px" viewBox="0 0 426.667 426.667" style="enable-background:new 0 0 426.667 426.667;" xml:space="preserve">
<g>
	<g>
		<path d="M213.333,0C95.467,0,0,95.467,0,213.333c0,117.76,95.467,213.333,213.333,213.333s213.333-95.573,213.333-213.333    C426.667,95.467,331.2,0,213.333,0z M128,330.667c-29.44,0-53.333-23.893-53.333-53.333S98.56,224,128,224    s53.333,23.893,53.333,53.333C181.333,306.773,157.44,330.667,128,330.667z M160,128c0-29.44,23.893-53.333,53.333-53.333    S266.667,98.56,266.667,128s-23.893,53.333-53.333,53.333S160,157.44,160,128z M298.667,330.667    c-29.44,0-53.333-23.893-53.333-53.333S269.227,224,298.667,224c29.44,0,53.333,23.893,53.333,53.333    C352,306.773,328.107,330.667,298.667,330.667z"/>
	</g>
</g>
<g>
</g>
<g>
</g>
<g>
</g>
<g>
</g>
<g>
</g>
<g>
</g>
<g>
</g>
<g>
</g>
<g>
</g>
<g>
</g>
<g>
</g>
<g>
</g>
<g>
</g>
<g>
</g>
<g>
</g>
</svg>
