<?xml version="1.0" encoding="iso-8859-1"?>
<!-- Generator: Adobe Illustrator 19.0.0, SVG Export Plug-In . SVG Version: 6.00 Build 0)  -->
<svg xmlns="http://www.w3.org/2000/svg" xmlns:xlink="http://www.w3.org/1999/xlink" version="1.1" id="Capa_1" x="0px" y="0px" viewBox="0 0 426.667 426.667" style="enable-background:new 0 0 426.667 426.667;" xml:space="preserve">
<g>
	<g>
		<path d="M384,64H189.44L170.667,0h-128C19.2,0,0,19.2,0,42.667V320c0,23.467,19.2,42.667,42.667,42.667H192l21.333,64H384    c23.467,0,42.667-19.2,42.667-42.667V106.667C426.667,83.2,407.467,64,384,64z M110.187,268.48    c-48.107,0-87.147-39.147-87.147-87.147s39.147-87.147,87.147-87.147c22.187,0,42.347,7.893,58.347,22.72l1.387,1.387    l-26.027,25.173l-1.28-1.173c-6.08-5.76-16.64-12.48-32.427-12.48c-27.947,0-50.667,23.147-50.667,51.627    c0,28.48,22.72,51.627,50.667,51.627c29.227,0,41.92-18.667,45.333-31.147h-47.147v-33.067h84.267l0.32,1.493    c0.853,4.48,1.173,8.427,1.173,12.907C194.027,233.493,159.573,268.48,110.187,268.48z M227.733,193.6h85.227    c0,0-7.253,28.053-33.28,58.347c-11.413-13.12-19.307-25.92-24.32-36.16h-21.12L227.733,193.6z M264.32,268.48l-11.413,11.307    l-13.973-47.573C246.08,245.013,254.72,257.28,264.32,268.48z M405.333,384c0,11.733-9.6,21.333-21.333,21.333H234.667    l42.667-42.667l-17.387-58.987l19.627-19.627l57.28,57.28l15.573-15.573l-57.707-57.28c19.2-22.08,34.133-48,40.853-74.773h27.093    V171.52H285.12v-22.187h-22.187v22.187H221.12l-25.387-86.187H384c11.733,0,21.333,9.6,21.333,21.333V384z"/>
	</g>
</g>
<g>
</g>
<g>
</g>
<g>
</g>
<g>
</g>
<g>
</g>
<g>
</g>
<g>
</g>
<g>
</g>
<g>
</g>
<g>
</g>
<g>
</g>
<g>
</g>
<g>
</g>
<g>
</g>
<g>
</g>
</svg>
