<?xml version="1.0" encoding="iso-8859-1"?>
<!-- Generator: Adobe Illustrator 19.0.0, SVG Export Plug-In . SVG Version: 6.00 Build 0)  -->
<svg xmlns="http://www.w3.org/2000/svg" xmlns:xlink="http://www.w3.org/1999/xlink" version="1.1" id="Capa_1" x="0px" y="0px" viewBox="0 0 384 384" style="enable-background:new 0 0 384 384;" xml:space="preserve">
<g>
	<g>
		<g>
			<path d="M128,0c-23.573,0-42.667,19.093-42.667,42.667H128V0z"/>
			<rect x="85.333" y="85.333" width="42.667" height="42.667"/>
			<rect x="85.333" y="170.667" width="42.667" height="42.667"/>
			<rect x="170.667" y="256" width="42.667" height="42.667"/>
			<rect x="170.667" y="0" width="42.667" height="42.667"/>
			<path d="M341.333,0v42.667H384C384,19.093,364.907,0,341.333,0z"/>
			<rect x="341.333" y="170.667" width="42.667" height="42.667"/>
			<path d="M128,298.667V256H85.333C85.333,279.573,104.427,298.667,128,298.667z"/>
			<rect x="341.333" y="85.333" width="42.667" height="42.667"/>
			<rect x="256" y="0" width="42.667" height="42.667"/>
			<path d="M341.333,298.667C364.907,298.667,384,279.573,384,256h-42.667V298.667z"/>
			<path d="M42.667,85.333H0v256C0,364.907,19.093,384,42.667,384h256v-42.667h-256V85.333z"/>
			<rect x="256" y="256" width="42.667" height="42.667"/>
		</g>
	</g>
</g>
<g>
</g>
<g>
</g>
<g>
</g>
<g>
</g>
<g>
</g>
<g>
</g>
<g>
</g>
<g>
</g>
<g>
</g>
<g>
</g>
<g>
</g>
<g>
</g>
<g>
</g>
<g>
</g>
<g>
</g>
</svg>
