<?xml version="1.0" encoding="iso-8859-1"?>
<!-- Generator: Adobe Illustrator 19.0.0, SVG Export Plug-In . SVG Version: 6.00 Build 0)  -->
<svg xmlns="http://www.w3.org/2000/svg" xmlns:xlink="http://www.w3.org/1999/xlink" version="1.1" id="Capa_1" x="0px" y="0px" viewBox="0 0 426.667 426.667" style="enable-background:new 0 0 426.667 426.667;" xml:space="preserve">
<g>
	<g>
		<g>
			<path d="M384,375.147V128L256,0H85.333C61.76,0,42.88,19.093,42.88,42.667L42.667,384c0,23.573,18.88,42.667,42.453,42.667     h256.213c9.493,0,18.24-3.2,25.28-8.533L272,323.52c-16.747,11.2-36.907,17.813-58.667,17.813     c-58.88,0-106.667-47.787-106.667-106.667S154.453,128,213.333,128S320,175.787,320,234.667c0,21.76-6.613,41.92-17.707,58.773     L384,375.147z"/>
			<path d="M149.333,234.667c0,35.307,28.693,64,64,64s64-28.693,64-64c0-35.307-28.693-64-64-64S149.333,199.36,149.333,234.667z"/>
		</g>
	</g>
</g>
<g>
</g>
<g>
</g>
<g>
</g>
<g>
</g>
<g>
</g>
<g>
</g>
<g>
</g>
<g>
</g>
<g>
</g>
<g>
</g>
<g>
</g>
<g>
</g>
<g>
</g>
<g>
</g>
<g>
</g>
</svg>
