<?xml version="1.0" encoding="iso-8859-1"?>
<!-- Generator: Adobe Illustrator 19.0.0, SVG Export Plug-In . SVG Version: 6.00 Build 0)  -->
<svg xmlns="http://www.w3.org/2000/svg" xmlns:xlink="http://www.w3.org/1999/xlink" version="1.1" id="Capa_1" x="0px" y="0px" viewBox="0 0 426.667 426.667" style="enable-background:new 0 0 426.667 426.667;" xml:space="preserve">
<g>
	<g>
		<g>
			<path d="M149.333,208c-14.72,0-26.667,11.947-26.667,26.667c0,14.72,11.947,26.667,26.667,26.667S176,249.387,176,234.667     C176,219.947,164.053,208,149.333,208z"/>
			<path d="M213.333,0C95.467,0,0,95.467,0,213.333s95.467,213.333,213.333,213.333S426.667,331.2,426.667,213.333     S331.2,0,213.333,0z M213.333,384c-94.08,0-170.667-76.587-170.667-170.667c0-6.187,0.427-12.267,1.067-18.24     c50.24-22.293,90.347-63.467,111.147-114.56c38.613,54.4,102.08,90.133,173.973,90.133c16.533,0,32.64-2.027,48-5.653     c4.587,15.36,7.147,31.573,7.147,48.32C384,307.413,307.413,384,213.333,384z"/>
			<path d="M277.333,208c-14.72,0-26.667,11.947-26.667,26.667c0,14.72,11.947,26.667,26.667,26.667S304,249.387,304,234.667     C304,219.947,292.053,208,277.333,208z"/>
		</g>
	</g>
</g>
<g>
</g>
<g>
</g>
<g>
</g>
<g>
</g>
<g>
</g>
<g>
</g>
<g>
</g>
<g>
</g>
<g>
</g>
<g>
</g>
<g>
</g>
<g>
</g>
<g>
</g>
<g>
</g>
<g>
</g>
</svg>
