<?xml version="1.0" encoding="iso-8859-1"?>
<!-- Generator: Adobe Illustrator 19.0.0, SVG Export Plug-In . SVG Version: 6.00 Build 0)  -->
<svg xmlns="http://www.w3.org/2000/svg" xmlns:xlink="http://www.w3.org/1999/xlink" version="1.1" id="Capa_1" x="0px" y="0px" viewBox="0 0 426.667 426.667" style="enable-background:new 0 0 426.667 426.667;" xml:space="preserve">
<g>
	<g>
		<g>
			<path d="M274.347,192h152.32c-10.24-101.333-85.333-181.973-192-192v152.747C256,159.147,267.093,173.653,274.347,192z"/>
			<path d="M0,213.333C0,324.48,85.333,416,192,426.667V273.92c-21.333-8.747-42.667-32.427-42.667-60.587     s21.333-51.84,42.667-60.587V0C85.333,10.667,0,102.187,0,213.333z"/>
			<path d="M234.667,273.92v152.747c106.667-10.027,181.76-90.667,192-192h-152.32C267.093,253.013,256,267.52,234.667,273.92z"/>
		</g>
	</g>
</g>
<g>
</g>
<g>
</g>
<g>
</g>
<g>
</g>
<g>
</g>
<g>
</g>
<g>
</g>
<g>
</g>
<g>
</g>
<g>
</g>
<g>
</g>
<g>
</g>
<g>
</g>
<g>
</g>
<g>
</g>
</svg>
