<?xml version="1.0" encoding="iso-8859-1"?>
<!-- Generator: Adobe Illustrator 19.0.0, SVG Export Plug-In . SVG Version: 6.00 Build 0)  -->
<svg xmlns="http://www.w3.org/2000/svg" xmlns:xlink="http://www.w3.org/1999/xlink" version="1.1" id="Capa_1" x="0px" y="0px" viewBox="0 0 426.667 426.667" style="enable-background:new 0 0 426.667 426.667;" xml:space="preserve">
<g>
	<g>
		<g>
			<path d="M362.027,192h64.64c-10.027-106.667-85.333-181.973-192-192v65.707C298.667,74.88,352.853,128,362.027,192z"/>
			<path d="M0,213.333C0,324.053,85.333,416,192,426.667V360.96c-64-10.24-128-72.533-128-147.627S128,75.947,192,65.707V0     C85.333,10.667,0,102.613,0,213.333z"/>
			<path d="M234.667,360.96v65.707c106.667-10.027,181.973-85.333,192-192h-64.64C352.853,298.667,298.667,351.787,234.667,360.96z"/>
		</g>
	</g>
</g>
<g>
</g>
<g>
</g>
<g>
</g>
<g>
</g>
<g>
</g>
<g>
</g>
<g>
</g>
<g>
</g>
<g>
</g>
<g>
</g>
<g>
</g>
<g>
</g>
<g>
</g>
<g>
</g>
<g>
</g>
</svg>
