<?xml version="1.0" encoding="iso-8859-1"?>
<!-- Generator: Adobe Illustrator 19.0.0, SVG Export Plug-In . SVG Version: 6.00 Build 0)  -->
<svg xmlns="http://www.w3.org/2000/svg" xmlns:xlink="http://www.w3.org/1999/xlink" version="1.1" id="Capa_1" x="0px" y="0px" viewBox="0 0 384 384" style="enable-background:new 0 0 384 384;" xml:space="preserve">
<g>
	<g>
		<g>
			<path d="M362.667,0H21.333C9.6,0,0,9.6,0,21.333v128c0,11.733,9.6,21.333,21.333,21.333h341.333     c11.733,0,21.333-9.6,21.333-21.333v-128C384,9.6,374.4,0,362.667,0z M85.333,128c-23.573,0-42.667-19.093-42.667-42.667     c0-23.573,19.093-42.667,42.667-42.667C108.907,42.667,128,61.76,128,85.333C128,108.907,108.907,128,85.333,128z"/>
			<path d="M362.667,213.333H21.333C9.6,213.333,0,222.933,0,234.667v128C0,374.4,9.6,384,21.333,384h341.333     C374.4,384,384,374.4,384,362.667v-128C384,222.933,374.4,213.333,362.667,213.333z M85.333,341.333     c-23.573,0-42.667-19.093-42.667-42.667C42.667,275.093,61.76,256,85.333,256C108.907,256,128,275.093,128,298.667     C128,322.24,108.907,341.333,85.333,341.333z"/>
		</g>
	</g>
</g>
<g>
</g>
<g>
</g>
<g>
</g>
<g>
</g>
<g>
</g>
<g>
</g>
<g>
</g>
<g>
</g>
<g>
</g>
<g>
</g>
<g>
</g>
<g>
</g>
<g>
</g>
<g>
</g>
<g>
</g>
</svg>
