<?xml version="1.0" encoding="iso-8859-1"?>
<!-- Generator: Adobe Illustrator 19.0.0, SVG Export Plug-In . SVG Version: 6.00 Build 0)  -->
<svg xmlns="http://www.w3.org/2000/svg" xmlns:xlink="http://www.w3.org/1999/xlink" version="1.1" id="Capa_1" x="0px" y="0px" viewBox="0 0 512 512" style="enable-background:new 0 0 512 512;" xml:space="preserve">
<g>
	<g>
		<g>
			<path d="M206.848,226.944c1.408-8.32,3.968-15.744,7.68-22.272c3.712-6.528,8.832-11.776,15.104-15.744     c6.016-3.712,13.568-5.76,22.912-5.888c6.144,0.128,11.776,1.152,16.64,3.328c5.248,2.304,9.6,5.376,13.312,9.216     c3.712,3.84,6.528,8.448,8.576,13.568c2.048,5.12,3.2,10.624,3.456,16.384h45.824c-0.384-12.032-2.816-23.04-7.04-33.024     s-10.368-18.56-18.048-25.856c-7.68-7.296-16.896-12.8-27.648-16.768c-10.752-3.968-22.656-6.016-35.712-6.016     c-16.64,0-31.104,2.816-43.392,8.576c-12.288,5.76-22.528,13.568-30.72,23.552c-8.192,9.984-14.336,21.504-18.304,34.688     c-3.968,13.184-5.888,27.136-5.888,41.856v7.04c0,14.848,2.048,28.8,6.016,41.984c3.968,13.184,10.112,24.704,18.304,34.56     c8.192,9.856,18.432,17.664,30.848,23.424s26.88,8.576,43.52,8.576c12.032,0,23.296-1.92,33.792-5.888     c10.496-3.968,19.712-9.344,27.648-16.256c7.936-6.912,14.336-14.848,18.944-24.064c4.608-9.216,7.296-18.944,7.68-29.44h-45.824     c-0.256,5.376-1.536,10.24-3.84,14.848c-2.304,4.608-5.376,8.448-9.216,11.648c-3.84,3.2-8.32,5.76-13.44,7.552     c-4.864,1.664-9.984,2.56-15.488,2.56c-9.216-0.256-16.768-2.176-22.912-6.016c-6.4-4.096-11.52-9.344-15.232-15.872     c-3.712-6.528-6.272-13.952-7.68-22.4s-1.92-16.64-1.92-25.216v-7.04C204.8,243.84,205.44,235.264,206.848,226.944z"/>
			<path d="M256,0C114.56,0,0,114.56,0,256s114.56,256,256,256s256-114.56,256-256S397.44,0,256,0z M256,460.8     c-112.896,0-204.8-91.904-204.8-204.8S143.104,51.2,256,51.2S460.8,143.104,460.8,256S368.896,460.8,256,460.8z"/>
		</g>
	</g>
</g>
<g>
</g>
<g>
</g>
<g>
</g>
<g>
</g>
<g>
</g>
<g>
</g>
<g>
</g>
<g>
</g>
<g>
</g>
<g>
</g>
<g>
</g>
<g>
</g>
<g>
</g>
<g>
</g>
<g>
</g>
</svg>
