<?xml version="1.0" encoding="iso-8859-1"?>
<!-- Generator: Adobe Illustrator 19.0.0, SVG Export Plug-In . SVG Version: 6.00 Build 0)  -->
<svg xmlns="http://www.w3.org/2000/svg" xmlns:xlink="http://www.w3.org/1999/xlink" version="1.1" id="Capa_1" x="0px" y="0px" viewBox="0 0 426.667 426.667" style="enable-background:new 0 0 426.667 426.667;" xml:space="preserve">
<g>
	<g>
		<path d="M384,64h-67.627l-39.04-42.667h-128L110.293,64H42.667C19.2,64,0,83.2,0,106.667v256c0,23.467,19.2,42.667,42.667,42.667    H384c23.467,0,42.667-19.2,42.667-42.667v-256C426.667,83.2,407.467,64,384,64z M213.333,341.333    c-58.88,0-106.667-47.787-106.667-106.667S154.453,128,213.333,128S320,175.787,320,234.667S272.213,341.333,213.333,341.333z"/>
	</g>
</g>
<g>
	<g>
		<polygon points="240,208 213.333,149.333 186.667,208 128,234.667 186.667,261.333 213.333,320 240,261.333 298.667,234.667   "/>
	</g>
</g>
<g>
</g>
<g>
</g>
<g>
</g>
<g>
</g>
<g>
</g>
<g>
</g>
<g>
</g>
<g>
</g>
<g>
</g>
<g>
</g>
<g>
</g>
<g>
</g>
<g>
</g>
<g>
</g>
<g>
</g>
</svg>
