<?xml version="1.0" encoding="iso-8859-1"?>
<!-- Generator: Adobe Illustrator 19.0.0, SVG Export Plug-In . SVG Version: 6.00 Build 0)  -->
<svg xmlns="http://www.w3.org/2000/svg" xmlns:xlink="http://www.w3.org/1999/xlink" version="1.1" id="Capa_1" x="0px" y="0px" viewBox="0 0 384 384" style="enable-background:new 0 0 384 384;" xml:space="preserve">
<g>
	<g>
		<path d="M362.667,106.667H302.72c-9.6-16.64-22.827-31.04-38.72-41.813l34.667-34.667L268.48,0l-46.4,46.4    c-9.6-2.347-19.733-3.733-30.08-3.733s-20.48,1.387-30.08,3.733L115.52,0L85.333,30.187L120,64.853    c-15.893,10.773-29.12,25.173-38.72,41.813H21.333v42.667H65.92c-1.173,6.933-1.92,14.08-1.92,21.333V192H21.333v42.667H64V256    c0,7.253,0.747,14.4,1.92,21.333H21.333V320H81.28c22.08,38.187,63.36,64,110.72,64s88.64-25.813,110.72-64h59.947v-42.667H318.08    C319.253,270.4,320,263.253,320,256v-21.333h42.667V192H320v-21.333c0-7.253-0.747-14.4-1.92-21.333h44.587V106.667z     M234.667,277.333h-85.333v-42.667h85.333V277.333z M234.667,192h-85.333v-42.667h85.333V192z"/>
	</g>
</g>
<g>
</g>
<g>
</g>
<g>
</g>
<g>
</g>
<g>
</g>
<g>
</g>
<g>
</g>
<g>
</g>
<g>
</g>
<g>
</g>
<g>
</g>
<g>
</g>
<g>
</g>
<g>
</g>
<g>
</g>
</svg>
