<?xml version="1.0" encoding="iso-8859-1"?>
<!-- Generator: Adobe Illustrator 19.0.0, SVG Export Plug-In . SVG Version: 6.00 Build 0)  -->
<svg xmlns="http://www.w3.org/2000/svg" xmlns:xlink="http://www.w3.org/1999/xlink" version="1.1" id="Capa_1" x="0px" y="0px" viewBox="0 0 512.027 512.027" style="enable-background:new 0 0 512.027 512.027;" xml:space="preserve">
<g>
	<g>
		<g>
			<path d="M128.013,384.027c0,11.733,9.6,21.333,21.333,21.333h21.333v74.667c0,17.707,14.293,32,32,32s32-14.293,32-32V405.36     h42.667v74.667c0,17.707,14.293,32,32,32s32-14.293,32-32V405.36h21.333c11.733,0,21.333-9.6,21.333-21.333V170.693h-256V384.027     z"/>
			<path d="M74.68,170.693c-17.707,0-32,14.293-32,32v149.333c0,17.707,14.293,32,32,32s32-14.293,32-32V202.693     C106.68,184.987,92.387,170.693,74.68,170.693z"/>
			<path d="M331.32,46.107l27.84-27.84c4.16-4.16,4.16-10.88,0-15.04c-4.16-4.16-10.88-4.16-15.04,0l-31.573,31.467     c-17.067-8.427-36.16-13.333-56.533-13.333c-20.48,0-39.68,4.907-56.853,13.44L167.48,3.12c-4.16-4.16-10.88-4.16-15.04,0     c-4.16,4.16-4.16,10.88,0,15.04l27.947,27.947c-31.68,23.36-52.373,60.907-52.373,103.253h256     C384.013,106.907,363.213,69.36,331.32,46.107z M213.347,106.693h-21.333V85.36h21.333V106.693z M320.013,106.693H298.68V85.36     h21.333V106.693z"/>
			<path d="M437.347,170.693c-17.707,0-32,14.293-32,32v149.333c0,17.707,14.293,32,32,32s32-14.293,32-32V202.693     C469.347,184.987,455.053,170.693,437.347,170.693z"/>
		</g>
	</g>
</g>
<g>
</g>
<g>
</g>
<g>
</g>
<g>
</g>
<g>
</g>
<g>
</g>
<g>
</g>
<g>
</g>
<g>
</g>
<g>
</g>
<g>
</g>
<g>
</g>
<g>
</g>
<g>
</g>
<g>
</g>
</svg>
