<?xml version="1.0" encoding="iso-8859-1"?>
<!-- Generator: Adobe Illustrator 19.0.0, SVG Export Plug-In . SVG Version: 6.00 Build 0)  -->
<svg xmlns="http://www.w3.org/2000/svg" xmlns:xlink="http://www.w3.org/1999/xlink" version="1.1" id="Capa_1" x="0px" y="0px" viewBox="0 0 341.333 341.333" style="enable-background:new 0 0 341.333 341.333;" xml:space="preserve">
<g>
	<g>
		<g>
			<polygon points="0,341.333 85.333,341.333 0,256    "/>
			<polygon points="341.333,341.333 341.333,256 256,341.333    "/>
			<polygon points="0,0 0,85.333 85.333,0    "/>
			<polygon points="256,0 341.333,85.333 341.333,0    "/>
			<path d="M276.267,65.067c-58.347-58.347-152.853-58.347-211.2,0c-58.347,58.347-58.347,152.853,0,211.2s152.853,58.347,211.2,0     S334.613,123.413,276.267,65.067z M88.533,252.8c-45.333-45.333-45.333-118.933,0-164.267     c45.333-45.333,118.933-45.333,164.267,0c45.333,45.333,45.333,118.933,0,164.267C207.467,298.133,133.867,298.133,88.533,252.8z     "/>
		</g>
	</g>
</g>
<g>
</g>
<g>
</g>
<g>
</g>
<g>
</g>
<g>
</g>
<g>
</g>
<g>
</g>
<g>
</g>
<g>
</g>
<g>
</g>
<g>
</g>
<g>
</g>
<g>
</g>
<g>
</g>
<g>
</g>
</svg>
