<?xml version="1.0" encoding="iso-8859-1"?>
<!-- Generator: Adobe Illustrator 19.0.0, SVG Export Plug-In . SVG Version: 6.00 Build 0)  -->
<svg xmlns="http://www.w3.org/2000/svg" xmlns:xlink="http://www.w3.org/1999/xlink" version="1.1" id="Capa_1" x="0px" y="0px" viewBox="0 0 434.24 434.24" style="enable-background:new 0 0 434.24 434.24;" xml:space="preserve">
<g>
	<g>
		<g>
			<polygon points="434.24,84.693 336.213,2.453 308.8,35.093 406.827,117.333    "/>
			<path d="M220.907,90.667c82.453,0,149.333,66.88,149.333,149.333c0,18.027-3.307,35.2-9.173,51.2l32.427,32.427     c12.373-25.28,19.413-53.653,19.413-83.627c0-106.027-85.973-192-192.107-192c-29.973,0-58.24,7.04-83.627,19.307l32.533,32.533     C185.707,93.973,202.88,90.667,220.907,90.667z"/>
			<path d="M27.2,11.627L0,38.72l28.373,28.373l-23.68,19.84l30.293,30.293l23.68-19.84l17.067,17.067     C46.613,148.16,28.907,192,28.907,240c0,106.027,85.76,192,191.893,192c48.107,0,91.947-17.813,125.547-46.933L393.28,432     l27.093-27.2L48,32.427L27.2,11.627z M316.267,354.987L316.267,354.987c-25.92,21.44-59.093,34.347-95.36,34.347     c-82.453,0-149.333-66.88-149.333-149.333c0-36.267,12.907-69.44,34.347-95.36L316.267,354.987z"/>
			<polygon points="135.893,32.533 105.6,2.24 87.467,17.493 117.76,47.787    "/>
		</g>
	</g>
</g>
<g>
</g>
<g>
</g>
<g>
</g>
<g>
</g>
<g>
</g>
<g>
</g>
<g>
</g>
<g>
</g>
<g>
</g>
<g>
</g>
<g>
</g>
<g>
</g>
<g>
</g>
<g>
</g>
<g>
</g>
</svg>
