<?xml version="1.0" encoding="iso-8859-1"?>
<!-- Generator: Adobe Illustrator 19.0.0, SVG Export Plug-In . SVG Version: 6.00 Build 0)  -->
<svg xmlns="http://www.w3.org/2000/svg" xmlns:xlink="http://www.w3.org/1999/xlink" version="1.1" id="Capa_1" x="0px" y="0px" viewBox="0 0 405.333 405.333" style="enable-background:new 0 0 405.333 405.333;" xml:space="preserve">
<g>
	<g>
		<g>
			<path d="M149.333,288V117.333c0-23.573,19.093-42.667,42.667-42.667h192V53.333c0-23.573-19.093-42.667-42.667-42.667H42.667     C19.093,10.667,0,29.76,0,53.333V352c0,23.573,19.093,42.667,42.667,42.667h298.667C364.907,394.667,384,375.573,384,352v-21.333     H192C168.427,330.667,149.333,311.573,149.333,288z"/>
			<path d="M192,117.333V288h213.333V117.333H192z M277.333,234.667c-17.707,0-32-14.293-32-32s14.293-32,32-32     c17.707,0,32,14.293,32,32S295.04,234.667,277.333,234.667z"/>
		</g>
	</g>
</g>
<g>
</g>
<g>
</g>
<g>
</g>
<g>
</g>
<g>
</g>
<g>
</g>
<g>
</g>
<g>
</g>
<g>
</g>
<g>
</g>
<g>
</g>
<g>
</g>
<g>
</g>
<g>
</g>
<g>
</g>
</svg>
