<?xml version="1.0" encoding="iso-8859-1"?>
<!-- Generator: Adobe Illustrator 19.0.0, SVG Export Plug-In . SVG Version: 6.00 Build 0)  -->
<svg xmlns="http://www.w3.org/2000/svg" xmlns:xlink="http://www.w3.org/1999/xlink" version="1.1" id="Capa_1" x="0px" y="0px" viewBox="0 0 426.667 426.667" style="enable-background:new 0 0 426.667 426.667;" xml:space="preserve">
<g>
	<g>
		<circle cx="213.333" cy="42.667" r="42.667"/>
	</g>
</g>
<g>
	<g>
		<g>
			<path d="M170.667,384c-35.307,0-64-28.693-64-64c0-27.84,17.813-51.52,42.667-60.267v-44.267C100.693,225.387,64,268.373,64,320     c0,58.88,47.787,106.667,106.667,106.667c51.627,0,94.613-36.693,104.533-85.333h-44.267     C222.187,366.187,198.507,384,170.667,384z"/>
			<path d="M362.667,234.667V192c-32.747,0.427-65.92-16-86.827-39.147l-27.627-30.507c-3.733-4.053-8.213-7.253-13.013-9.707     c-0.213-0.107-0.32-0.213-0.427-0.32h-0.213c-7.36-4.267-16.107-6.4-25.387-5.44c-22.187,2.133-38.507,22.08-38.507,44.373     v126.08c0,23.573,19.093,42.667,42.667,42.667H320v106.667h42.667V309.333c0-23.573-19.093-42.667-42.667-42.667h-64v-73.6     C283.52,215.787,325.227,234.56,362.667,234.667z"/>
		</g>
	</g>
</g>
<g>
</g>
<g>
</g>
<g>
</g>
<g>
</g>
<g>
</g>
<g>
</g>
<g>
</g>
<g>
</g>
<g>
</g>
<g>
</g>
<g>
</g>
<g>
</g>
<g>
</g>
<g>
</g>
<g>
</g>
</svg>
