<?xml version="1.0" encoding="iso-8859-1"?>
<!-- Generator: Adobe Illustrator 19.0.0, SVG Export Plug-In . SVG Version: 6.00 Build 0)  -->
<svg xmlns="http://www.w3.org/2000/svg" xmlns:xlink="http://www.w3.org/1999/xlink" version="1.1" id="Capa_1" x="0px" y="0px" viewBox="0 0 512 512" style="enable-background:new 0 0 512 512;" xml:space="preserve">
<g>
	<g>
		<g>
			<path d="M199.467,312.427c-4.8,4.48-11.52,6.72-20.16,6.72h0c-4.053,0-7.787-0.533-11.2-1.813     c-3.307-1.173-6.187-2.88-8.533-5.013c-2.347-2.133-4.16-4.8-5.44-7.787c-1.28-3.093-1.92-6.4-1.92-10.027H124.48     c0,7.68,1.493,14.4,4.48,20.267c2.987,5.867,6.933,10.773,11.947,14.613c5.013,3.947,10.773,6.827,17.387,8.853     c6.613,2.133,13.44,3.093,20.693,3.093c7.893,0,15.253-1.067,22.08-3.2c6.827-2.133,12.693-5.333,17.707-9.493     c5.013-4.16,8.853-9.28,11.733-15.36c2.773-6.08,4.267-13.013,4.267-20.8c0-4.16-0.533-8.107-1.493-11.947     c-1.067-3.84-2.667-7.467-4.8-10.88c-2.24-3.413-5.12-6.4-8.64-9.173c-3.52-2.667-7.893-4.907-12.907-6.72     c4.267-1.92,8-4.267,11.2-7.04s5.867-5.76,8-8.853c2.133-3.2,3.733-6.4,4.8-9.813c1.067-3.413,1.6-6.827,1.6-10.133     c0-7.787-1.28-14.613-3.84-20.48c-2.56-5.867-6.187-10.773-10.88-14.72s-10.24-6.933-16.853-8.96     c-6.827-2.133-14.08-3.093-21.973-3.093c-7.68,0-14.827,1.173-21.333,3.413s-12.053,5.44-16.747,9.493     c-4.693,4.053-8.32,8.853-10.987,14.4c-2.667,5.547-3.947,11.627-3.947,18.133h27.733c0-3.627,0.64-6.827,1.92-9.6     c1.28-2.88,3.093-5.333,5.333-7.253c2.24-2.027,5.013-3.627,8.107-4.693c3.093-1.067,6.507-1.707,10.133-1.707     c8.533,0,14.827,2.24,18.987,6.613c4.16,4.373,6.187,10.56,6.187,18.453c0,3.84-0.533,7.253-1.707,10.347     c-1.173,3.093-2.88,5.76-5.227,8s-5.333,3.947-8.747,5.227c-3.52,1.28-7.68,1.92-12.373,1.92h-16.427v21.867h16.427     c4.693,0,8.96,0.533,12.693,1.6s6.933,2.667,9.6,5.013c2.667,2.24,4.693,5.12,6.187,8.533c1.387,3.413,2.133,7.467,2.133,12.16     C206.933,301.227,204.48,307.84,199.467,312.427z"/>
			<path d="M160.32,458.347C90.667,425.28,40.64,357.547,33.067,277.333h-32C11.947,408.747,121.813,512,256,512     c4.8,0,9.387-0.427,14.08-0.747l-81.28-81.387L160.32,458.347z"/>
			<path d="M256,0c-4.8,0-9.387,0.427-14.08,0.747l81.28,81.387l28.373-28.373c69.76,32.96,119.787,100.693,127.36,180.907h32     C500.053,103.253,390.187,0,256,0z"/>
			<path d="M361.92,192.747L361.92,192.747c-6.72-7.04-14.827-12.48-24.213-16.32c-9.493-3.84-19.84-5.76-31.253-5.76H256v170.667     h48.96c11.84,0,22.507-1.92,32.213-5.76c9.707-3.84,17.92-9.28,24.747-16.32c6.827-7.04,12.16-15.573,15.787-25.493     c3.733-9.92,5.547-21.12,5.547-33.493v-8.427c0-12.373-1.92-23.467-5.653-33.493C373.867,208.32,368.64,199.787,361.92,192.747z      M353.6,260.373h-0.107c0,8.853-0.96,16.96-3.093,24c-2.027,7.147-5.013,13.12-9.067,18.027s-9.067,8.64-15.147,11.307     c-6.08,2.56-13.12,3.947-21.227,3.947h-19.307V194.56h20.8c15.36,0,26.987,4.907,35.093,14.613     c8,9.813,12.053,23.893,12.053,42.453V260.373z"/>
		</g>
	</g>
</g>
<g>
</g>
<g>
</g>
<g>
</g>
<g>
</g>
<g>
</g>
<g>
</g>
<g>
</g>
<g>
</g>
<g>
</g>
<g>
</g>
<g>
</g>
<g>
</g>
<g>
</g>
<g>
</g>
<g>
</g>
</svg>
